<svg width="135" height="50" viewBox="0 0 135 50" fill="none" xmlns="http://www.w3.org/2000/svg">
<g filter="url(#filter0_d_86_195)">
<rect x="4" width="127" height="42" rx="21" fill="#3489ED" fill-opacity="0.7" shape-rendering="crispEdges"/>
<path d="M33.9213 27.32C32.9293 27.32 32.0546 27.08 31.2973 26.6C30.5506 26.12 29.9746 25.4693 29.5693 24.648C29.164 23.816 28.9613 22.8933 28.9613 21.88C28.9613 20.8347 29.18 19.8693 29.6173 18.984C30.0653 18.0987 30.668 17.4 31.4253 16.888C32.1933 16.376 33.0253 16.12 33.9213 16.12C34.7746 16.12 35.5213 16.2427 36.1613 16.488C36.812 16.7227 37.292 17.0267 37.6013 17.4C37.7826 17.624 37.8946 17.9227 37.9373 18.296C37.98 18.6587 38.0013 19.16 38.0013 19.8H37.6813C37.4786 18.7653 37.1053 18.0027 36.5613 17.512C36.0173 17.0107 35.2973 16.76 34.4013 16.76C33.2493 16.76 32.3213 17.1653 31.6173 17.976C30.9133 18.7867 30.5613 20.088 30.5613 21.88C30.5613 22.7227 30.6946 23.5067 30.9613 24.232C31.2386 24.9573 31.6653 25.5493 32.2413 26.008C32.8173 26.456 33.5373 26.68 34.4013 26.68C35.18 26.68 35.8573 26.4933 36.4333 26.12C37.02 25.7467 37.5426 25.1867 38.0013 24.44L38.3213 24.68C37.8306 25.64 37.2226 26.3227 36.4973 26.728C35.7826 27.1227 34.924 27.32 33.9213 27.32ZM43.4019 27.16C42.6766 27.16 42.0473 26.9893 41.5139 26.648C40.9806 26.296 40.5753 25.8213 40.2979 25.224C40.0206 24.6267 39.8819 23.9653 39.8819 23.24C39.8819 22.5147 40.0206 21.8533 40.2979 21.256C40.5753 20.6587 40.9806 20.1893 41.5139 19.848C42.0473 19.496 42.6766 19.32 43.4019 19.32C44.1273 19.32 44.7566 19.496 45.2899 19.848C45.8233 20.1893 46.2286 20.6587 46.5059 21.256C46.7833 21.8533 46.9219 22.5147 46.9219 23.24C46.9219 23.9653 46.7833 24.6267 46.5059 25.224C46.2286 25.8213 45.8233 26.296 45.2899 26.648C44.7566 26.9893 44.1273 27.16 43.4019 27.16ZM43.4019 26.52C43.7966 26.52 44.1433 26.376 44.4419 26.088C44.7513 25.8 44.9859 25.4053 45.1459 24.904C45.3166 24.4027 45.4019 23.848 45.4019 23.24C45.4019 22.632 45.3166 22.0773 45.1459 21.576C44.9859 21.0747 44.7513 20.68 44.4419 20.392C44.1433 20.104 43.7966 19.96 43.4019 19.96C43.0073 19.96 42.6553 20.104 42.3459 20.392C42.0473 20.68 41.8126 21.0747 41.6419 21.576C41.4819 22.0773 41.4019 22.632 41.4019 23.24C41.4019 23.848 41.4819 24.4027 41.6419 24.904C41.8126 25.4053 42.0473 25.8 42.3459 26.088C42.6553 26.376 43.0073 26.52 43.4019 26.52ZM49.3023 21.4C49.3023 20.856 49.2276 20.456 49.0783 20.2C48.929 19.9333 48.6303 19.8 48.1823 19.8H47.8623V19.48H49.3023C49.697 19.48 49.9956 19.5333 50.1983 19.64C50.4116 19.7467 50.5663 19.9067 50.6623 20.12H50.7423C50.9663 19.896 51.2543 19.7093 51.6063 19.56C51.969 19.4 52.3743 19.32 52.8223 19.32C53.6223 19.32 54.273 19.5333 54.7743 19.96C55.2863 20.3867 55.5423 21.1333 55.5423 22.2V27H54.1023V22.2C54.1023 21.4533 53.9316 20.9093 53.5903 20.568C53.2596 20.216 52.8436 20.04 52.3423 20.04C51.777 20.04 51.2436 20.3227 50.7423 20.888V27H49.3023V21.4ZM60.2534 27.16C59.6561 27.16 59.1868 26.9893 58.8454 26.648C58.5041 26.3067 58.3334 25.784 58.3334 25.08V20.12H57.2134V19.48H58.3334V18.04L59.1334 17.08H59.7734V19.48H61.6934V20.12H59.7734V25.08C59.7734 26.04 60.1468 26.52 60.8934 26.52C61.1494 26.52 61.3628 26.4933 61.5334 26.44C61.7148 26.3867 61.9014 26.3067 62.0934 26.2L62.2534 26.52C62.0081 26.7013 61.7361 26.856 61.4374 26.984C61.1388 27.1013 60.7441 27.16 60.2534 27.16ZM65.4917 27.16C65.1504 27.16 64.8037 27.0907 64.4517 26.952C64.0997 26.8027 63.7957 26.5627 63.5397 26.232C63.2944 25.9013 63.1717 25.464 63.1717 24.92C63.1717 24.1093 63.545 23.5333 64.2917 23.192C65.049 22.8507 66.0357 22.68 67.2517 22.68H67.7317C67.7317 21.6347 67.5877 20.92 67.2997 20.536C67.0117 20.152 66.5957 19.96 66.0517 19.96C65.5717 19.96 65.1877 20.0613 64.8997 20.264C64.6117 20.4667 64.409 20.8187 64.2917 21.32H63.5717C63.5717 20.9573 63.593 20.6747 63.6357 20.472C63.6784 20.2587 63.7904 20.0613 63.9717 19.88C64.1637 19.688 64.4784 19.5493 64.9157 19.464C65.3637 19.368 65.849 19.32 66.3717 19.32C67.2357 19.32 67.9184 19.5547 68.4197 20.024C68.921 20.4827 69.1717 21.368 69.1717 22.68V27H68.3717L67.8117 26.28H67.7317C67.5397 26.5253 67.257 26.7333 66.8837 26.904C66.5104 27.0747 66.0464 27.16 65.4917 27.16ZM66.2117 26.44C66.5637 26.44 66.857 26.3547 67.0917 26.184C67.3264 26.0133 67.5397 25.7787 67.7317 25.48V23.32H67.2517C66.4624 23.32 65.8384 23.4693 65.3797 23.768C64.921 24.056 64.6917 24.44 64.6917 24.92C64.6917 25.4107 64.8357 25.7893 65.1237 26.056C65.4224 26.312 65.785 26.44 66.2117 26.44ZM74.7548 27.16C73.9868 27.16 73.3361 26.9893 72.8028 26.648C72.2801 26.296 71.8855 25.8267 71.6188 25.24C71.3628 24.6427 71.2348 23.976 71.2348 23.24C71.2348 22.504 71.3628 21.8427 71.6188 21.256C71.8855 20.6587 72.2801 20.1893 72.8028 19.848C73.3361 19.496 73.9868 19.32 74.7548 19.32C75.9281 19.32 76.7015 19.5067 77.0748 19.88C77.2561 20.0613 77.3681 20.2853 77.4108 20.552C77.4535 20.808 77.4748 21.2773 77.4748 21.96H77.1548C77.1121 21.2987 76.9041 20.8027 76.5308 20.472C76.1575 20.1307 75.6721 19.96 75.0748 19.96C74.3068 19.96 73.7255 20.264 73.3308 20.872C72.9468 21.48 72.7548 22.2693 72.7548 23.24C72.7548 24.2107 72.9468 25 73.3308 25.608C73.7255 26.216 74.3068 26.52 75.0748 26.52C75.6188 26.52 76.0668 26.4187 76.4188 26.216C76.7708 26.0027 77.0961 25.6773 77.3948 25.24L77.7148 25.48C77.3628 26.0773 76.9468 26.5093 76.4668 26.776C75.9868 27.032 75.4161 27.16 74.7548 27.16ZM81.8892 27.16C81.2919 27.16 80.8225 26.9893 80.4812 26.648C80.1399 26.3067 79.9692 25.784 79.9692 25.08V20.12H78.8492V19.48H79.9692V18.04L80.7692 17.08H81.4092V19.48H83.3292V20.12H81.4092V25.08C81.4092 26.04 81.7825 26.52 82.5292 26.52C82.7852 26.52 82.9985 26.4933 83.1692 26.44C83.3505 26.3867 83.5372 26.3067 83.7292 26.2L83.8892 26.52C83.6439 26.7013 83.3719 26.856 83.0732 26.984C82.7745 27.1013 82.3799 27.16 81.8892 27.16ZM94.1114 27.16C93.0874 27.16 92.2768 26.9893 91.6794 26.648C91.0821 26.296 90.6554 25.7787 90.3994 25.096C90.1541 24.4133 90.0314 23.528 90.0314 22.44V18.36C90.0314 17.816 89.9568 17.416 89.8074 17.16C89.6581 16.8933 89.3594 16.76 88.9114 16.76H88.5914V16.44H90.0314C90.4261 16.44 90.7194 16.4933 90.9114 16.6C91.1141 16.696 91.2581 16.8773 91.3434 17.144C91.4288 17.4107 91.4714 17.816 91.4714 18.36V22.92C91.4714 24.104 91.6901 25 92.1274 25.608C92.5648 26.216 93.2901 26.52 94.3034 26.52C95.1141 26.52 95.7541 26.376 96.2234 26.088C96.7034 25.8 97.0448 25.3627 97.2474 24.776C97.4501 24.1893 97.5514 23.4107 97.5514 22.44V16.44H98.1914V22.44C98.1914 23.5493 98.0741 24.4453 97.8394 25.128C97.6048 25.8 97.1888 26.3067 96.5914 26.648C96.0048 26.9893 95.1781 27.16 94.1114 27.16ZM103.266 27.16C102.039 27.16 101.213 26.9467 100.786 26.52C100.605 26.3387 100.493 26.136 100.45 25.912C100.407 25.6773 100.386 25.32 100.386 24.84H100.706C100.802 25.3733 101.031 25.7893 101.394 26.088C101.767 26.376 102.285 26.52 102.946 26.52C103.533 26.52 103.97 26.4187 104.258 26.216C104.557 26.0133 104.706 25.7413 104.706 25.4C104.706 25.0907 104.589 24.824 104.354 24.6C104.13 24.376 103.767 24.1627 103.266 23.96L102.306 23.56C101.666 23.304 101.186 23.0053 100.866 22.664C100.546 22.3227 100.386 21.9013 100.386 21.4C100.386 20.7493 100.631 20.2427 101.122 19.88C101.613 19.5067 102.247 19.32 103.026 19.32C104.199 19.32 104.999 19.5333 105.426 19.96C105.607 20.1413 105.719 20.344 105.762 20.568C105.805 20.792 105.826 21.1493 105.826 21.64H105.506C105.421 21.1067 105.197 20.696 104.834 20.408C104.471 20.1093 103.975 19.96 103.346 19.96C102.845 19.96 102.45 20.0667 102.162 20.28C101.885 20.4827 101.746 20.7493 101.746 21.08C101.746 21.6347 102.173 22.088 103.026 22.44L103.986 22.84C104.711 23.1387 105.239 23.4587 105.57 23.8C105.901 24.1307 106.066 24.5573 106.066 25.08C106.066 25.7307 105.805 26.2427 105.282 26.616C104.759 26.9787 104.087 27.16 103.266 27.16Z" fill="white"/>
</g>
<defs>
<filter id="filter0_d_86_195" x="0" y="0" width="135" height="50" filterUnits="userSpaceOnUse" color-interpolation-filters="sRGB">
<feFlood flood-opacity="0" result="BackgroundImageFix"/>
<feColorMatrix in="SourceAlpha" type="matrix" values="0 0 0 0 0 0 0 0 0 0 0 0 0 0 0 0 0 0 127 0" result="hardAlpha"/>
<feOffset dy="4"/>
<feGaussianBlur stdDeviation="2"/>
<feComposite in2="hardAlpha" operator="out"/>
<feColorMatrix type="matrix" values="0 0 0 0 0 0 0 0 0 0 0 0 0 0 0 0 0 0 0.25 0"/>
<feBlend mode="normal" in2="BackgroundImageFix" result="effect1_dropShadow_86_195"/>
<feBlend mode="normal" in="SourceGraphic" in2="effect1_dropShadow_86_195" result="shape"/>
</filter>
</defs>
</svg>
