<svg width="159" height="28" viewBox="0 0 159 28" fill="none" xmlns="http://www.w3.org/2000/svg">
<circle cx="14" cy="14" r="12.5" fill="white" stroke="#68D073" stroke-width="3"/>
<path d="M9 12.3333L13.1026 16.3333L19.6667 11" stroke="#68D073" stroke-width="3"/>
<path d="M48.2347 8.61V22.17H49.4347V8.61H48.2347ZM45.9397 14.04V15.075H48.5497V14.04H45.9397ZM45.1597 8.91V21.48H46.3297V8.91H45.1597ZM38.4097 17.79V18.825H39.2947C41.3347 18.825 42.6997 18.765 44.3197 18.42L44.1997 17.385C42.6247 17.715 41.2747 17.79 39.2947 17.79H38.4097ZM38.4097 10.26V18.255H39.6397V11.28H43.4497V10.26H38.4097ZM51.7585 10.035V11.055H59.7685V10.035H51.7585ZM55.7635 11.745C53.8135 11.745 52.5085 12.705 52.5085 14.205C52.5085 15.69 53.8135 16.635 55.7635 16.635C57.6835 16.635 59.0035 15.69 59.0035 14.205C59.0035 12.705 57.6835 11.745 55.7635 11.745ZM55.7635 12.72C56.9785 12.72 57.8185 13.29 57.8185 14.205C57.8185 15.09 56.9785 15.675 55.7635 15.675C54.5185 15.675 53.6935 15.09 53.6935 14.205C53.6935 13.29 54.5185 12.72 55.7635 12.72ZM60.9985 8.61V17.085H62.2435V8.61H60.9985ZM61.8985 12.345V13.38H64.2535V12.345H61.8985ZM53.4385 17.82V18.84H60.9985V22.17H62.2435V17.82H53.4385ZM55.1335 8.535V10.605H56.3785V8.535H55.1335ZM79.6423 8.61V22.17H80.8273V8.61H79.6423ZM77.4973 14.07V15.12H80.1073V14.07H77.4973ZM76.6873 8.895V21.495H77.8573V8.895H76.6873ZM72.0673 10.71V12.27C72.0673 15.03 71.0773 17.34 69.1273 18.42L69.8923 19.38C71.9773 18.135 73.0423 15.525 73.0423 12.27V10.71H72.0673ZM72.2923 10.71V12.27C72.2923 15.255 73.3723 17.76 75.4423 18.9L76.1773 17.94C74.2723 16.965 73.2673 14.76 73.2673 12.27V10.71H72.2923ZM69.4423 10.2V11.235H75.7423V10.2H69.4423ZM83.1062 10.035V11.055H91.1162V10.035H83.1062ZM87.1112 11.745C85.1612 11.745 83.8562 12.705 83.8562 14.205C83.8562 15.69 85.1612 16.635 87.1112 16.635C89.0312 16.635 90.3512 15.69 90.3512 14.205C90.3512 12.705 89.0312 11.745 87.1112 11.745ZM87.1112 12.72C88.3262 12.72 89.1662 13.29 89.1662 14.205C89.1662 15.09 88.3262 15.675 87.1112 15.675C85.8662 15.675 85.0412 15.09 85.0412 14.205C85.0412 13.29 85.8662 12.72 87.1112 12.72ZM92.3462 8.61V17.085H93.5912V8.61H92.3462ZM93.2462 12.345V13.38H95.6012V12.345H93.2462ZM84.7862 17.82V18.84H92.3462V22.17H93.5912V17.82H84.7862ZM86.4812 8.535V10.605H87.7262V8.535H86.4812ZM106.73 11.625V12.66H110.825V11.625H106.73ZM106.73 15.915V16.95H110.825V15.915H106.73ZM104.24 9.645C102.26 9.645 100.865 11.49 100.865 14.37C100.865 17.265 102.26 19.11 104.24 19.11C106.205 19.11 107.615 17.265 107.615 14.37C107.615 11.49 106.205 9.645 104.24 9.645ZM104.24 10.77C105.545 10.77 106.445 12.18 106.445 14.37C106.445 16.575 105.545 18.015 104.24 18.015C102.935 18.015 102.035 16.575 102.035 14.37C102.035 12.18 102.935 10.77 104.24 10.77ZM110.555 8.595V22.185H111.785V8.595H110.555ZM114.409 16.635V17.655H126.709V16.635H114.409ZM119.899 17.115V22.17H121.129V17.115H119.899ZM115.954 9.15V15.015H125.134V9.15H123.904V11.01H117.199V9.15H115.954ZM117.199 12.015H123.904V14.01H117.199V12.015ZM135.513 14.97V16.71H136.758V14.97H135.513ZM141.228 8.625V17.715H142.473V8.625H141.228ZM141.948 12.72V13.755H144.453V12.72H141.948ZM132.048 17.325C134.418 17.31 137.628 17.295 140.523 16.785L140.418 15.9C137.613 16.305 134.313 16.305 131.883 16.305L132.048 17.325ZM133.563 18.39V19.38H141.228V22.17H142.473V18.39H133.563ZM132.228 9.84V10.77H140.013V9.84H132.228ZM136.128 11.295C134.208 11.295 132.963 12.06 132.963 13.305C132.963 14.55 134.208 15.315 136.128 15.315C138.033 15.315 139.278 14.55 139.278 13.305C139.278 12.06 138.033 11.295 136.128 11.295ZM136.128 12.15C137.328 12.15 138.108 12.585 138.108 13.305C138.108 13.995 137.328 14.445 136.128 14.445C134.913 14.445 134.133 13.995 134.133 13.305C134.133 12.585 134.913 12.15 136.128 12.15ZM135.513 8.505V10.29H136.758V8.505H135.513ZM155.626 8.625V18.525H156.886V8.625H155.626ZM148.171 20.85V21.87H157.291V20.85H148.171ZM148.171 17.505V21.195H149.401V17.505H148.171ZM149.611 9.555C147.586 9.555 146.071 10.935 146.071 12.9C146.071 14.85 147.586 16.245 149.611 16.245C151.636 16.245 153.136 14.85 153.136 12.9C153.136 10.935 151.636 9.555 149.611 9.555ZM149.611 10.635C150.931 10.635 151.936 11.565 151.936 12.9C151.936 14.22 150.931 15.15 149.611 15.15C148.291 15.15 147.286 14.22 147.286 12.9C147.286 11.565 148.291 10.635 149.611 10.635Z" fill="black"/>
</svg>
