<svg width="362" height="42" viewBox="0 0 362 42" fill="none" xmlns="http://www.w3.org/2000/svg">
<path d="M136.624 27.08C136.112 27.08 135.606 26.9413 135.104 26.664C134.603 26.376 134.203 25.8213 133.904 25L133.504 23.96H129.024L127.744 27H127.024L131.504 16.44H131.984L135.504 25C135.771 25.6187 136.022 26.0453 136.256 26.28C136.491 26.504 136.827 26.6373 137.264 26.68V27C137.072 27.0533 136.859 27.08 136.624 27.08ZM133.184 23.32L131.264 18.68L129.264 23.32H133.184ZM138.788 18.36C138.788 17.816 138.714 17.416 138.564 17.16C138.415 16.8933 138.116 16.76 137.668 16.76H137.348V16.44H141.508C142.532 16.44 143.455 16.6587 144.276 17.096C145.098 17.5333 145.508 18.3813 145.508 19.64C145.508 20.472 145.295 21.112 144.868 21.56C144.442 22.008 143.962 22.3067 143.428 22.456C142.906 22.6053 142.426 22.68 141.988 22.68H140.228V27H138.788V18.36ZM141.428 22.12C141.77 22.12 142.132 22.0347 142.516 21.864C142.9 21.6827 143.226 21.4 143.492 21.016C143.77 20.632 143.908 20.1467 143.908 19.56C143.908 18.9733 143.77 18.488 143.492 18.104C143.226 17.72 142.9 17.4427 142.516 17.272C142.132 17.0907 141.77 17 141.428 17C141.055 17 140.655 17.0533 140.228 17.16V21.96C140.655 22.0667 141.055 22.12 141.428 22.12ZM149.049 27C148.654 27 148.355 26.952 148.153 26.856C147.961 26.7493 147.822 26.5627 147.737 26.296C147.651 26.0293 147.609 25.624 147.609 25.08V16.44H149.049V25.08C149.049 25.624 149.123 26.0293 149.273 26.296C149.422 26.552 149.721 26.68 150.169 26.68H150.489V27H149.049ZM165.211 27.16C164.71 27.16 164.187 27.0267 163.643 26.76C163.099 26.4827 162.475 25.976 161.771 25.24L158.411 21.72V27H156.971V18.36C156.971 17.816 156.896 17.416 156.747 17.16C156.598 16.8933 156.299 16.76 155.851 16.76H155.531V16.44H156.971C157.366 16.44 157.659 16.4933 157.851 16.6C158.054 16.696 158.198 16.8773 158.283 17.144C158.368 17.4107 158.411 17.816 158.411 18.36V21.48L161.771 18.12L162.091 17.784C162.39 17.4747 162.64 17.2347 162.843 17.064C163.046 16.8827 163.286 16.7333 163.563 16.616C163.84 16.4987 164.15 16.44 164.491 16.44H165.291V16.84C164.843 16.84 164.454 16.92 164.123 17.08C163.792 17.2293 163.408 17.5227 162.971 17.96L159.851 21.08L163.531 24.92C164 25.4 164.475 25.8053 164.955 26.136C165.435 26.456 165.867 26.6427 166.251 26.696V27C165.931 27.1067 165.584 27.16 165.211 27.16ZM168.063 18.36C168.063 17.816 167.989 17.416 167.839 17.16C167.69 16.8933 167.391 16.76 166.943 16.76H166.623V16.44H173.439C174.346 16.44 174.799 16.8667 174.799 17.72V18.92H174.479C174.479 17.6933 173.813 17.08 172.479 17.08H169.503V21.24H173.823V21.88H169.503V26.36H172.303C173.039 26.36 173.615 26.2267 174.031 25.96C174.447 25.6933 174.778 25.24 175.023 24.6L175.343 24.68L174.783 26.2C174.591 26.7333 174.191 27 173.583 27H168.063V18.36ZM177.989 18.52C177.711 18.1253 177.477 17.816 177.285 17.592C177.093 17.368 176.863 17.1813 176.597 17.032C176.341 16.872 176.031 16.7813 175.669 16.76V16.44H177.109C177.642 16.44 178.09 16.6 178.453 16.92C178.815 17.2293 179.167 17.656 179.509 18.2L181.829 21.8L185.173 16.44H185.893L182.149 22.52V27H180.709V22.632L177.989 18.52ZM192.036 15.08V21.784H198.676V15.08H192.036ZM197.38 16.152V20.712H193.332V16.152H197.38ZM201.332 13.768V24.376H202.66V13.768H201.332ZM202.244 18.184V19.288H204.804V18.184H202.244ZM193.652 26.84V27.928H203.316V26.84H193.652ZM193.652 23.368V27.304H194.98V23.368H193.652ZM206.426 19.816V20.904H219.498V19.816H206.426ZM208.154 17.576V18.648H217.946V17.576H208.154ZM208.154 14.248V18.44H209.466V15.336H217.786V14.248H208.154ZM207.994 22.152V23.192H216.506V24.568H208.026V27.384H209.338V25.56H217.818V22.152H207.994ZM208.026 27.032V28.088H218.25V27.032H208.026ZM231.937 13.784V28.248H233.265V13.784H231.937ZM227.697 15.336V15.56C227.697 19.4 225.761 22.472 221.585 24.488L222.289 25.56C227.121 23.192 229.009 19.528 229.009 15.336H227.697ZM222.241 15.336V16.424H228.273V15.336H222.241Z" fill="#8C8C8C"/>
<rect x="0.5" y="0.5" width="361" height="41" rx="3.5" stroke="#8C8C8C"/>
</svg>
