<svg width="57" height="13" viewBox="0 0 57 13" fill="none" xmlns="http://www.w3.org/2000/svg">
<path d="M8.178 0.249V12.027H9.257V0.249H8.178ZM3.056 1.159C1.327 1.159 0.0790001 2.758 0.0790001 5.254C0.0790001 7.763 1.327 9.362 3.056 9.362C4.798 9.362 6.046 7.763 6.046 5.254C6.046 2.758 4.798 1.159 3.056 1.159ZM3.056 2.134C4.213 2.134 5.006 3.356 5.006 5.254C5.006 7.165 4.213 8.413 3.056 8.413C1.912 8.413 1.106 7.165 1.106 5.254C1.106 3.356 1.912 2.134 3.056 2.134ZM16.549 6.138V8.816H17.641V6.138H16.549ZM17.108 1.016C15.275 1.016 13.949 2.147 13.949 3.785C13.949 5.423 15.275 6.554 17.108 6.554C18.941 6.554 20.254 5.423 20.254 3.785C20.254 2.147 18.941 1.016 17.108 1.016ZM17.108 1.952C18.317 1.952 19.201 2.693 19.201 3.785C19.201 4.877 18.317 5.631 17.108 5.631C15.886 5.631 15.002 4.877 15.002 3.785C15.002 2.693 15.886 1.952 17.108 1.952ZM21.788 0.249V12.027H22.867V0.249H21.788ZM13.507 9.479C15.6 9.479 18.473 9.466 21.112 8.959L21.021 8.166C18.46 8.569 15.496 8.582 13.351 8.582L13.507 9.479ZM40.442 0.262V12.014H41.521V0.262H40.442ZM36.997 1.523V1.705C36.997 4.825 35.424 7.321 32.031 8.959L32.603 9.83C36.529 7.906 38.063 4.929 38.063 1.523H36.997ZM32.564 1.523V2.407H37.465V1.523H32.564ZM46.98 3.525V4.409H54.949V3.525H46.98ZM46.98 0.496V3.915H48.046V0.496H46.98ZM45.537 5.774V6.645H56.158V5.774H45.537ZM50.828 7.698C48.319 7.698 46.798 8.465 46.798 9.843C46.798 11.195 48.319 11.975 50.828 11.975C53.337 11.975 54.858 11.195 54.858 9.843C54.858 8.465 53.337 7.698 50.828 7.698ZM50.828 8.543C52.674 8.543 53.766 9.011 53.766 9.843C53.766 10.649 52.674 11.117 50.828 11.117C48.995 11.117 47.89 10.649 47.89 9.843C47.89 9.011 48.995 8.543 50.828 8.543Z" fill="#595959"/>
</svg>
