<svg width="288" height="36" viewBox="0 0 288 36" fill="none" xmlns="http://www.w3.org/2000/svg">
<path d="M23.485 10.8V21.36H24.829V10.8H23.485ZM15.533 23.84V24.928H25.261V23.84H15.533ZM15.533 20.272V24.208H16.845V20.272H15.533ZM17.069 11.792C14.909 11.792 13.293 13.264 13.293 15.36C13.293 17.44 14.909 18.928 17.069 18.928C19.229 18.928 20.829 17.44 20.829 15.36C20.829 13.264 19.229 11.792 17.069 11.792ZM17.069 12.944C18.477 12.944 19.549 13.936 19.549 15.36C19.549 16.768 18.477 17.76 17.069 17.76C15.661 17.76 14.589 16.768 14.589 15.36C14.589 13.936 15.661 12.944 17.069 12.944ZM27.9397 17.664V18.736H41.0117V17.664H27.9397ZM34.4677 19.984C31.3797 19.984 29.5077 20.944 29.5077 22.608C29.5077 24.272 31.3797 25.216 34.4677 25.216C37.5557 25.216 39.4277 24.272 39.4277 22.608C39.4277 20.944 37.5557 19.984 34.4677 19.984ZM34.4677 21.04C36.7397 21.04 38.0837 21.6 38.0837 22.608C38.0837 23.6 36.7397 24.176 34.4677 24.176C32.2117 24.176 30.8517 23.6 30.8517 22.608C30.8517 21.6 32.2117 21.04 34.4677 21.04ZM33.6197 12.096V12.528C33.6197 14.16 31.2677 15.456 28.6757 15.744L29.1557 16.784C32.1477 16.432 34.8037 14.848 34.8037 12.528V12.096H33.6197ZM34.1797 12.096V12.528C34.1797 14.848 36.8197 16.432 39.8117 16.784L40.2917 15.744C37.6997 15.456 35.3477 14.16 35.3477 12.528V12.096H34.1797ZM29.1397 11.52V12.592H39.8437V11.52H29.1397ZM56.9785 10.768V25.248H58.3225V10.768H56.9785ZM57.9545 16.64V17.744H60.6265V16.64H57.9545ZM53.2825 12.336V12.544C53.2825 16.368 51.2825 19.456 47.2825 21.488L48.0185 22.512C52.6905 20.16 54.5785 16.448 54.5785 12.336H53.2825ZM47.9545 12.336V13.424H53.9705V12.336H47.9545ZM63.9612 14.8V15.888H73.7692V14.8H63.9612ZM63.9612 11.072V15.28H65.2732V11.072H63.9612ZM62.1852 17.568V18.64H75.2572V17.568H62.1852ZM68.6972 19.936C65.6092 19.936 63.7372 20.88 63.7372 22.576C63.7372 24.24 65.6092 25.2 68.6972 25.2C71.7852 25.2 73.6572 24.24 73.6572 22.576C73.6572 20.88 71.7852 19.936 68.6972 19.936ZM68.6972 20.976C70.9692 20.976 72.3132 21.552 72.3132 22.576C72.3132 23.568 70.9692 24.144 68.6972 24.144C66.4412 24.144 65.0812 23.568 65.0812 22.576C65.0812 21.552 66.4412 20.976 68.6972 20.976ZM92.424 10.784V25.248H93.704V10.784H92.424ZM89.976 16.576V17.68H92.76V16.576H89.976ZM89.144 11.104V24.512H90.392V11.104H89.144ZM81.944 20.576V21.68H82.888C85.064 21.68 86.52 21.616 88.248 21.248L88.12 20.144C86.44 20.496 85 20.576 82.888 20.576H81.944ZM81.944 12.544V21.072H83.256V13.632H87.32V12.544H81.944ZM96.4467 12.304V13.392H104.991V12.304H96.4467ZM100.719 14.128C98.6387 14.128 97.2467 15.152 97.2467 16.752C97.2467 18.336 98.6387 19.344 100.719 19.344C102.767 19.344 104.175 18.336 104.175 16.752C104.175 15.152 102.767 14.128 100.719 14.128ZM100.719 15.168C102.015 15.168 102.911 15.776 102.911 16.752C102.911 17.696 102.015 18.32 100.719 18.32C99.3907 18.32 98.5107 17.696 98.5107 16.752C98.5107 15.776 99.3907 15.168 100.719 15.168ZM106.303 10.784V19.824H107.631V10.784H106.303ZM107.263 14.768V15.872H109.775V14.768H107.263ZM98.2387 20.608V21.696H106.303V25.248H107.631V20.608H98.2387ZM100.047 10.704V12.912H101.375V10.704H100.047ZM122.557 13.12V14.208H126.733V13.12H122.557ZM122.557 16V17.072H126.765V16H122.557ZM126.221 10.784V19.344H127.549V10.784H126.221ZM116.317 11.872V18.304H122.925V11.872H116.317ZM121.613 12.944V17.248H117.613V12.944H121.613ZM122.797 19.76C119.805 19.76 117.965 20.768 117.965 22.496C117.965 24.224 119.805 25.216 122.797 25.216C125.773 25.216 127.613 24.224 127.613 22.496C127.613 20.768 125.773 19.76 122.797 19.76ZM122.797 20.816C124.973 20.816 126.301 21.44 126.301 22.496C126.301 23.552 124.973 24.176 122.797 24.176C120.621 24.176 119.293 23.552 119.293 22.496C119.293 21.44 120.621 20.816 122.797 20.816ZM140.532 10.768V21.248H141.86V10.768H140.532ZM141.46 15.072V16.176H144.004V15.072H141.46ZM131.3 17.6V18.704H132.42C135.46 18.704 137.172 18.608 139.156 18.192L139.012 17.12C137.076 17.52 135.396 17.6 132.42 17.6H131.3ZM131.3 12.016V18.192H132.612V13.12H137.684V12.016H131.3ZM132.852 23.84V24.928H142.516V23.84H132.852ZM132.852 20.208V24.336H134.18V20.208H132.852Z" fill="#A6A6A6"/>
</svg>
