<svg width="288" height="34" viewBox="0 0 288 34" fill="none" xmlns="http://www.w3.org/2000/svg">
<path d="M13.8376 10.376V16.696H20.5256V10.376H19.2296V12.456H15.1496V10.376H13.8376ZM15.1496 13.496H19.2296V15.624H15.1496V13.496ZM23.1336 9.784V17.24H24.4616V9.784H23.1336ZM23.8856 12.888V13.992H26.5896V12.888H23.8856ZM15.2776 17.944V19H23.1656V20.456H15.3096V23.624H16.6216V21.448H24.4616V17.944H15.2776ZM15.3096 23.032V24.088H24.9896V23.032H15.3096ZM34.0844 14.84V17.544H35.3964V14.84H34.0844ZM34.0684 10.008V10.648C34.0684 12.584 31.5884 14.184 28.9964 14.536L29.5084 15.592C32.4524 15.112 35.2204 13.256 35.2204 10.648V10.008H34.0684ZM34.2764 10.008V10.648C34.2764 13.256 37.0604 15.096 39.9884 15.592L40.4844 14.536C37.9084 14.184 35.4124 12.584 35.4124 10.648V10.008H34.2764ZM28.2124 16.968V18.024H41.2844V16.968H28.2124ZM34.7404 19.224C31.6364 19.224 29.7804 20.12 29.7804 21.72C29.7804 23.336 31.6364 24.216 34.7404 24.216C37.8444 24.216 39.7004 23.336 39.7004 21.72C39.7004 20.12 37.8444 19.224 34.7404 19.224ZM34.7404 20.248C37.0284 20.248 38.3564 20.776 38.3564 21.72C38.3564 22.664 37.0284 23.192 34.7404 23.192C32.4684 23.192 31.1244 22.664 31.1244 21.72C31.1244 20.776 32.4684 20.248 34.7404 20.248ZM44.5551 14.504V15.592H51.5311V14.504H44.5551ZM47.3391 15.16V18.056H48.6671V15.16H47.3391ZM44.5551 10.728V14.984H45.8831V11.816H51.4351V10.728H44.5551ZM53.7071 9.784V20.6H55.0351V9.784H53.7071ZM45.6911 22.84V23.928H55.5151V22.84H45.6911ZM45.6911 19.896V23.304H47.0031V19.896H45.6911ZM43.4511 18.776C46.1551 18.776 49.5791 18.696 52.6351 18.248L52.5551 17.272C49.5791 17.624 46.0591 17.688 43.2751 17.688L43.4511 18.776ZM72.9699 9.8V20.36H74.3139V9.8H72.9699ZM65.0179 22.84V23.928H74.7459V22.84H65.0179ZM65.0179 19.272V23.208H66.3299V19.272H65.0179ZM66.5539 10.792C64.3939 10.792 62.7779 12.264 62.7779 14.36C62.7779 16.44 64.3939 17.928 66.5539 17.928C68.7139 17.928 70.3139 16.44 70.3139 14.36C70.3139 12.264 68.7139 10.792 66.5539 10.792ZM66.5539 11.944C67.9619 11.944 69.0339 12.936 69.0339 14.36C69.0339 15.768 67.9619 16.76 66.5539 16.76C65.1459 16.76 64.0739 15.768 64.0739 14.36C64.0739 12.936 65.1459 11.944 66.5539 11.944ZM77.4246 16.664V17.736H90.4966V16.664H77.4246ZM83.9526 18.984C80.8646 18.984 78.9926 19.944 78.9926 21.608C78.9926 23.272 80.8646 24.216 83.9526 24.216C87.0406 24.216 88.9126 23.272 88.9126 21.608C88.9126 19.944 87.0406 18.984 83.9526 18.984ZM83.9526 20.04C86.2246 20.04 87.5686 20.6 87.5686 21.608C87.5686 22.6 86.2246 23.176 83.9526 23.176C81.6966 23.176 80.3366 22.6 80.3366 21.608C80.3366 20.6 81.6966 20.04 83.9526 20.04ZM83.1046 11.096V11.528C83.1046 13.16 80.7526 14.456 78.1606 14.744L78.6406 15.784C81.6326 15.432 84.2886 13.848 84.2886 11.528V11.096H83.1046ZM83.6646 11.096V11.528C83.6646 13.848 86.3046 15.432 89.2966 15.784L89.7766 14.744C87.1846 14.456 84.8326 13.16 84.8326 11.528V11.096H83.6646ZM78.6246 10.52V11.592H89.3286V10.52H78.6246ZM93.9754 11.192V12.28H103.159V11.192H93.9754ZM92.4074 21.192V22.28H105.479V21.192H92.4074ZM102.615 11.192V12.568C102.615 14.28 102.615 16.312 101.991 19.112L103.319 19.272C103.911 16.312 103.911 14.328 103.911 12.568V11.192H102.615ZM102.903 14.664L93.5754 15.032L93.7834 16.184L102.903 15.672V14.664ZM97.4954 17.448V21.592H98.8234V17.448H97.4954ZM109.054 16.712V17.8H118.99V16.712H109.054ZM107.406 21.192V22.296H120.51V21.192H107.406ZM109.054 11.112V17.192H110.382V12.216H118.846V11.112H109.054ZM137.165 9.784V17.544H138.509V9.784H137.165ZM129.181 18.264V24.056H138.509V18.264H137.197V20.024H130.493V18.264H129.181ZM130.493 21.08H137.197V22.984H130.493V21.08ZM130.749 10.472C128.557 10.472 126.973 11.832 126.973 13.8C126.973 15.784 128.557 17.144 130.749 17.144C132.941 17.144 134.509 15.784 134.509 13.8C134.509 11.832 132.941 10.472 130.749 10.472ZM130.749 11.576C132.189 11.576 133.229 12.488 133.229 13.8C133.229 15.112 132.189 16.024 130.749 16.024C129.309 16.024 128.269 15.112 128.269 13.8C128.269 12.488 129.309 11.576 130.749 11.576ZM142.228 16.952V18.04H143.268C146.164 18.04 147.604 17.992 149.396 17.672L149.252 16.6C147.524 16.904 146.116 16.952 143.268 16.952H142.228ZM142.196 10.648V11.736H147.124V13.72H142.228V17.608H143.54V14.76H148.436V10.648H142.196ZM152.196 9.8V18.68H153.524V9.8H152.196ZM149.396 11.928V13.016H152.5V11.928H149.396ZM149.396 14.92V16.008H152.5V14.92H149.396ZM143.844 19.464V20.552H152.196V24.28H153.524V19.464H143.844Z" fill="#B1B1B1"/>
</svg>
