<svg width="288" height="36" viewBox="0 0 288 36" fill="none" xmlns="http://www.w3.org/2000/svg">
<path d="M23.6096 10.768V25.264H24.9376V10.768H23.6096ZM17.3056 11.888C15.1776 11.888 13.6416 13.856 13.6416 16.928C13.6416 20.016 15.1776 21.984 17.3056 21.984C19.4496 21.984 20.9856 20.016 20.9856 16.928C20.9856 13.856 19.4496 11.888 17.3056 11.888ZM17.3056 13.088C18.7296 13.088 19.7056 14.592 19.7056 16.928C19.7056 19.28 18.7296 20.816 17.3056 20.816C15.8976 20.816 14.9056 19.28 14.9056 16.928C14.9056 14.592 15.8976 13.088 17.3056 13.088ZM31.3124 15.68V18.416H32.6244V15.68H31.3124ZM36.6244 15.68V18.416H37.9364V15.68H36.6244ZM28.0804 17.936V19.008H41.1524V17.936H28.0804ZM34.6084 20.096C31.5044 20.096 29.6484 21.008 29.6484 22.656C29.6484 24.304 31.5044 25.232 34.6084 25.232C37.7124 25.232 39.5684 24.304 39.5684 22.656C39.5684 21.008 37.7124 20.096 34.6084 20.096ZM34.6084 21.12C36.8804 21.12 38.2244 21.68 38.2244 22.656C38.2244 23.648 36.8804 24.192 34.6084 24.192C32.3524 24.192 30.9924 23.648 30.9924 22.656C30.9924 21.68 32.3524 21.12 34.6084 21.12ZM34.6244 11.04C31.4724 11.04 29.5364 12.048 29.5364 13.744C29.5364 15.424 31.4724 16.416 34.6244 16.416C37.7604 16.416 39.7124 15.424 39.7124 13.744C39.7124 12.048 37.7604 11.04 34.6244 11.04ZM34.6244 12.08C36.9284 12.08 38.3524 12.688 38.3524 13.744C38.3524 14.784 36.9284 15.392 34.6244 15.392C32.3204 15.392 30.8964 14.784 30.8964 13.744C30.8964 12.688 32.3204 12.08 34.6244 12.08ZM46.6471 12.848V15.2C46.6471 17.648 44.9031 20.4 42.8391 21.408L43.6071 22.464C45.8631 21.312 47.7031 18.208 47.7031 15.2V12.848H46.6471ZM46.8871 12.848V15.2C46.8871 18.064 48.6311 20.976 50.9191 22.112L51.6711 21.056C49.5751 20.064 47.9431 17.488 47.9431 15.2V12.848H46.8871ZM43.3511 12.256V13.376H51.1431V12.256H43.3511ZM52.8551 10.784V25.248H54.1991V10.784H52.8551ZM53.8791 16.624V17.744H56.5671V16.624H53.8791ZM62.8379 12.448V21.376H68.3579V12.448H62.8379ZM67.1099 13.504V20.32H64.0859V13.504H67.1099ZM73.3339 10.784V25.248H74.6139V10.784H73.3339ZM67.6859 16.224V17.328H71.0139V16.224H67.6859ZM70.4699 11.088V24.528H71.7339V11.088H70.4699ZM81.3566 11.312C79.2126 11.312 77.6286 12.624 77.6286 14.528C77.6286 16.416 79.2126 17.728 81.3566 17.728C83.5166 17.728 85.1006 16.416 85.1006 14.528C85.1006 12.624 83.5166 11.312 81.3566 11.312ZM81.3566 12.4C82.7646 12.4 83.8046 13.28 83.8046 14.528C83.8046 15.776 82.7646 16.64 81.3566 16.64C79.9646 16.64 78.9086 15.776 78.9086 14.528C78.9086 13.28 79.9646 12.4 81.3566 12.4ZM87.8206 10.784V18.192H89.1646V10.784H87.8206ZM79.8046 18.896V19.968H87.8526V21.424H79.8366V24.592H81.1326V22.416H89.1646V18.896H79.8046ZM79.8366 24V25.056H89.6446V24H79.8366ZM107.067 10.8V21.36H108.411V10.8H107.067ZM99.1154 23.84V24.928H108.843V23.84H99.1154ZM99.1154 20.272V24.208H100.427V20.272H99.1154ZM100.651 11.792C98.4914 11.792 96.8754 13.264 96.8754 15.36C96.8754 17.44 98.4914 18.928 100.651 18.928C102.811 18.928 104.411 17.44 104.411 15.36C104.411 13.264 102.811 11.792 100.651 11.792ZM100.651 12.944C102.059 12.944 103.131 13.936 103.131 15.36C103.131 16.768 102.059 17.76 100.651 17.76C99.2434 17.76 98.1714 16.768 98.1714 15.36C98.1714 13.936 99.2434 12.944 100.651 12.944ZM111.522 17.664V18.736H124.594V17.664H111.522ZM118.05 19.984C114.962 19.984 113.09 20.944 113.09 22.608C113.09 24.272 114.962 25.216 118.05 25.216C121.138 25.216 123.01 24.272 123.01 22.608C123.01 20.944 121.138 19.984 118.05 19.984ZM118.05 21.04C120.322 21.04 121.666 21.6 121.666 22.608C121.666 23.6 120.322 24.176 118.05 24.176C115.794 24.176 114.434 23.6 114.434 22.608C114.434 21.6 115.794 21.04 118.05 21.04ZM117.202 12.096V12.528C117.202 14.16 114.85 15.456 112.258 15.744L112.738 16.784C115.73 16.432 118.386 14.848 118.386 12.528V12.096H117.202ZM117.762 12.096V12.528C117.762 14.848 120.402 16.432 123.394 16.784L123.874 15.744C121.282 15.456 118.93 14.16 118.93 12.528V12.096H117.762ZM112.722 11.52V12.592H123.426V11.52H112.722ZM134.593 12.032V14.624C134.593 17.36 132.849 20.128 130.705 21.152L131.521 22.24C133.889 21.04 135.681 17.952 135.681 14.624V12.032H134.593ZM134.817 12.032V14.624C134.817 17.84 136.625 20.816 138.977 21.968L139.777 20.912C137.633 19.92 135.905 17.264 135.905 14.624V12.032H134.817ZM141.281 10.768V25.264H142.609V10.768H141.281ZM149.32 12.272V13.44C149.32 15.504 147.88 17.36 145.688 18.128L146.392 19.168C148.808 18.304 150.408 16.096 150.408 13.44V12.272H149.32ZM149.56 12.272V13.424C149.56 15.92 151.096 18.048 153.48 18.88L154.168 17.84C152.04 17.12 150.648 15.344 150.648 13.424V12.272H149.56ZM146.104 11.792V12.88H153.832V11.792H146.104ZM155.656 10.784V19.488H156.984V10.784H155.656ZM156.616 14.592V15.696H159.128V14.592H156.616ZM147.592 20.256V21.36H155.656V25.248H156.984V20.256H147.592Z" fill="#B1B1B1"/>
</svg>
