<svg width="288" height="36" viewBox="0 0 288 36" fill="none" xmlns="http://www.w3.org/2000/svg">
<path d="M23.6343 10.8H24.9783V21.36H23.6343V10.8ZM15.6823 23.84H25.4103V24.928H15.6823V23.84ZM15.6823 20.272H16.9943V24.208H15.6823V20.272ZM17.2183 11.792C19.3783 11.792 20.9783 13.264 20.9783 15.36C20.9783 17.44 19.3783 18.928 17.2183 18.928C15.0583 18.928 13.4423 17.44 13.4423 15.36C13.4423 13.264 15.0583 11.792 17.2183 11.792ZM17.2183 12.944C15.8103 12.944 14.7383 13.936 14.7383 15.36C14.7383 16.768 15.8103 17.76 17.2183 17.76C18.6263 17.76 19.6983 16.768 19.6983 15.36C19.6983 13.936 18.6263 12.944 17.2183 12.944ZM28.089 17.664H41.161V18.736H28.089V17.664ZM34.617 19.984C37.705 19.984 39.577 20.944 39.577 22.608C39.577 24.272 37.705 25.216 34.617 25.216C31.529 25.216 29.657 24.272 29.657 22.608C29.657 20.944 31.529 19.984 34.617 19.984ZM34.617 21.04C32.361 21.04 31.001 21.6 31.001 22.608C31.001 23.6 32.361 24.176 34.617 24.176C36.889 24.176 38.233 23.6 38.233 22.608C38.233 21.6 36.889 21.04 34.617 21.04ZM33.769 12.096H34.953V12.528C34.953 14.848 32.297 16.432 29.305 16.784L28.825 15.744C31.417 15.456 33.769 14.16 33.769 12.528V12.096ZM34.329 12.096H35.497V12.528C35.497 14.16 37.849 15.456 40.441 15.744L39.961 16.784C36.969 16.432 34.329 14.848 34.329 12.528V12.096ZM29.289 11.52H39.993V12.592H29.289V11.52ZM44.4318 15.504H51.4078V16.592H44.4318V15.504ZM47.2158 16.16H48.5438V19.056H47.2158V16.16ZM44.4318 11.728H51.3118V12.816H45.7598V15.984H44.4318V11.728ZM53.5838 10.784H54.9118V21.6H53.5838V10.784ZM45.5678 23.84H55.3918V24.928H45.5678V23.84ZM45.5678 20.896H46.8798V24.304H45.5678V20.896ZM43.3278 19.776L43.1518 18.688C45.9358 18.688 49.4558 18.624 52.4318 18.272L52.5118 19.248C49.4558 19.696 46.0318 19.776 43.3278 19.776ZM65.6785 19.728H67.0385V25.248H65.6785V19.728ZM70.6545 19.728H72.0145V25.248H70.6545V19.728ZM62.3185 19.008H75.4385V20.112H62.3185V19.008ZM68.8465 11.36C71.8705 11.36 73.9025 12.576 73.9025 14.512C73.9025 16.432 71.8705 17.664 68.8465 17.664C65.8385 17.664 63.7905 16.432 63.7905 14.512C63.7905 12.576 65.8385 11.36 68.8465 11.36ZM68.8465 12.432C66.6385 12.432 65.1345 13.248 65.1345 14.512C65.1345 15.776 66.6385 16.592 68.8465 16.592C71.0545 16.592 72.5425 15.776 72.5425 14.512C72.5425 13.248 71.0545 12.432 68.8465 12.432ZM87.8933 10.768H89.2053V25.264H87.8933V10.768ZM84.7733 16.048H88.2773V17.136H84.7733V16.048ZM80.9813 12.848H82.0533V15.008C82.0533 18.128 80.2613 21.216 77.9733 22.4L77.1893 21.344C79.2693 20.32 80.9813 17.584 80.9813 15.008V12.848ZM81.2533 12.848H82.3093V15.008C82.3093 17.424 83.9893 20.064 86.0853 21.056L85.3013 22.096C83.0133 20.96 81.2533 17.984 81.2533 15.008V12.848ZM77.7173 12.256H85.5893V13.36H77.7173V12.256ZM98.228 11.376H107.956V16.304H98.228V11.376ZM106.644 12.448H99.524V15.232H106.644V12.448ZM96.548 18.112H109.62V19.184H96.548V18.112ZM102.436 16.016H103.748V18.512H102.436V16.016ZM98.004 20.672H108.004V25.248H106.676V21.76H98.004V20.672ZM111.531 18.736H124.651V19.824H111.531V18.736ZM113.195 11.152H122.955V14.656H114.539V16.608H113.227V13.68H121.659V12.192H113.195V11.152ZM113.227 16.176H123.275V17.216H113.227V16.176ZM117.419 16.72H118.747V19.28H117.419V16.72ZM112.987 20.928H123.051V25.12H121.723V22.016H112.987V20.928ZM130.793 22.32H143.898V23.424H130.793V22.32ZM136.666 19.056H137.993V22.912H136.666V19.056ZM136.666 13.808H137.833V14.128C137.833 17.088 135.146 19.008 132.009 19.552L131.497 18.496C134.33 18.048 136.666 16.368 136.666 14.128V13.808ZM136.842 13.808H137.993V14.128C137.993 16.368 140.33 18.048 143.161 18.496L142.649 19.552C139.514 19.008 136.842 17.088 136.842 14.128V13.808ZM131.993 13.056H142.649V14.16H131.993V13.056ZM136.666 11.088H137.993V13.456H136.666V11.088ZM156.304 10.784H157.632V25.248H156.304V10.784ZM152.064 12.336H153.376C153.376 16.528 151.488 20.192 146.656 22.56L145.952 21.488C150.128 19.472 152.064 16.4 152.064 12.56V12.336ZM146.608 12.336H152.64V13.424H146.608V12.336ZM164.503 19.408H165.831V21.76H164.503V19.408ZM170.583 10.784H171.911V25.248H170.583V10.784ZM171.479 16.928H174.151V18.048H171.479V16.928ZM160.775 22.496L160.583 21.392C163.175 21.392 166.711 21.36 169.703 20.928L169.815 21.92C166.695 22.48 163.303 22.496 160.775 22.496ZM160.823 12.528H169.479V13.6H160.823V12.528ZM165.159 14.448C167.175 14.448 168.567 15.504 168.567 17.12C168.567 18.752 167.175 19.792 165.159 19.792C163.143 19.792 161.767 18.752 161.767 17.12C161.767 15.504 163.143 14.448 165.159 14.448ZM165.159 15.472C163.863 15.472 163.015 16.128 163.015 17.12C163.015 18.112 163.863 18.768 165.159 18.768C166.455 18.768 167.319 18.112 167.319 17.12C167.319 16.128 166.455 15.472 165.159 15.472ZM164.503 10.8H165.831V13.248H164.503V10.8Z" fill="#5287C6"/>
</svg>
