<svg width="296" height="44" viewBox="0 0 296 44" fill="none" xmlns="http://www.w3.org/2000/svg">
<g filter="url(#filter0_d_19_274)">
<rect x="4" width="288" height="36" rx="4" fill="white" shape-rendering="crispEdges"/>
<path d="M33.5285 6.85V29.45H35.5785V6.85H33.5285ZM34.4035 15.675V17.4H38.5785V15.675H34.4035ZM18.0035 8.95V23.975H24.2535V8.95H22.5285V14.75H19.7785V8.95H18.0035ZM19.7785 16.4H22.5285V22.275H19.7785V16.4ZM25.4535 8.95V23.975H31.6285V8.95H29.8785V14.75H27.2035V8.95H25.4535ZM27.2035 16.4H29.8785V22.275H27.2035V16.4ZM40.9891 19.375V21.05H61.4891V19.375H40.9891ZM43.6891 27.25V28.95H59.3391V27.25H43.6891ZM43.6891 22.825V27.9H45.7641V22.825H43.6891ZM43.5891 7.6V9.225H56.8141V11.675H43.6391V16.25H45.6891V13.2H58.8391V7.6H43.5891ZM43.6391 15.7V17.325H59.3391V15.7H43.6391ZM77.0371 8.8V12.85C77.0371 17.125 74.3121 21.45 70.9621 23.05L72.2371 24.75C75.9371 22.875 78.7371 18.05 78.7371 12.85V8.8H77.0371ZM77.3871 8.8V12.85C77.3871 17.875 80.2121 22.525 83.8871 24.325L85.1371 22.675C81.7871 21.125 79.0871 16.975 79.0871 12.85V8.8H77.3871ZM87.4871 6.825V29.475H89.5621V6.825H87.4871ZM100.048 9.175V11C100.048 14.225 97.7977 17.125 94.3727 18.325L95.4727 19.95C99.2477 18.6 101.748 15.15 101.748 11V9.175H100.048ZM100.423 9.175V10.975C100.423 14.875 102.823 18.2 106.548 19.5L107.623 17.875C104.298 16.75 102.123 13.975 102.123 10.975V9.175H100.423ZM95.0227 8.425V10.125H107.098V8.425H95.0227ZM109.948 6.85V20.45H112.023V6.85H109.948ZM111.448 12.8V14.525H115.373V12.8H111.448ZM97.3477 21.65V23.375H109.948V29.45H112.023V21.65H97.3477ZM137.083 32.75C134.983 31.1667 133.417 29.4917 132.383 27.725C131.35 25.975 130.833 23.9 130.833 21.5C130.833 19.1 131.35 17.025 132.383 15.275C133.417 13.5083 134.983 11.8333 137.083 10.25L137.333 10.625C134.5 13.1083 133.083 16.7333 133.083 21.5C133.083 26.2667 134.5 29.8917 137.333 32.375L137.083 32.75ZM149.486 21.1C144.661 21.1 141.611 22.675 141.611 25.275C141.611 27.85 144.661 29.4 149.486 29.4C154.286 29.4 157.361 27.85 157.361 25.275C157.361 22.675 154.286 21.1 149.486 21.1ZM149.486 22.725C153.036 22.725 155.286 23.7 155.286 25.275C155.286 26.825 153.036 27.8 149.486 27.8C145.936 27.8 143.661 26.825 143.661 25.275C143.661 23.7 145.936 22.725 149.486 22.725ZM141.786 7.975V9.675H156.336V7.975H141.786ZM139.361 17.375V19.05H159.761V17.375H139.361ZM147.736 13.025V17.85H149.786V13.025H147.736ZM155.136 7.975V9.9C155.136 11.675 155.136 13.325 154.511 15.65L156.561 15.9C157.161 13.55 157.161 11.725 157.161 9.9V7.975H155.136ZM162.746 18.825V20.5H183.171V18.825H162.746ZM171.921 15.9V19.525H173.971V15.9H171.921ZM165.446 14.975V16.6H180.771V14.975H165.446ZM165.446 7.5V15.85H167.496V9.125H180.671V7.5H165.446ZM166.896 11.2V12.8H180.071V11.2H166.896ZM172.946 22.175C168.021 22.175 165.196 23.425 165.196 25.8C165.196 28.15 168.021 29.4 172.946 29.4C177.871 29.4 180.696 28.15 180.696 25.8C180.696 23.425 177.871 22.175 172.946 22.175ZM172.946 23.75C176.571 23.75 178.596 24.475 178.596 25.8C178.596 27.15 176.571 27.85 172.946 27.85C169.321 27.85 167.296 27.15 167.296 25.8C167.296 24.475 169.321 23.75 172.946 23.75ZM185.307 32.375C188.14 29.8917 189.557 26.2667 189.557 21.5C189.557 16.7333 188.14 13.1083 185.307 10.625L185.557 10.25C187.657 11.8333 189.223 13.5083 190.257 15.275C191.29 17.025 191.807 19.1 191.807 21.5C191.807 23.9 191.29 25.975 190.257 27.725C189.223 29.4917 187.657 31.1667 185.557 32.75L185.307 32.375Z" fill="#5287C6"/>
</g>
<defs>
<filter id="filter0_d_19_274" x="0" y="0" width="296" height="44" filterUnits="userSpaceOnUse" color-interpolation-filters="sRGB">
<feFlood flood-opacity="0" result="BackgroundImageFix"/>
<feColorMatrix in="SourceAlpha" type="matrix" values="0 0 0 0 0 0 0 0 0 0 0 0 0 0 0 0 0 0 127 0" result="hardAlpha"/>
<feOffset dy="4"/>
<feGaussianBlur stdDeviation="2"/>
<feComposite in2="hardAlpha" operator="out"/>
<feColorMatrix type="matrix" values="0 0 0 0 0 0 0 0 0 0 0 0 0 0 0 0 0 0 0.25 0"/>
<feBlend mode="normal" in2="BackgroundImageFix" result="effect1_dropShadow_19_274"/>
<feBlend mode="normal" in="SourceGraphic" in2="effect1_dropShadow_19_274" result="shape"/>
</filter>
</defs>
</svg>
