<svg width="288" height="36" viewBox="0 0 288 36" fill="none" xmlns="http://www.w3.org/2000/svg">
<path d="M13.8376 11.376V17.696H20.5256V11.376H19.2296V13.456H15.1496V11.376H13.8376ZM15.1496 14.496H19.2296V16.624H15.1496V14.496ZM23.1336 10.784V18.24H24.4616V10.784H23.1336ZM23.8856 13.888V14.992H26.5896V13.888H23.8856ZM15.2776 18.944V20H23.1656V21.456H15.3096V24.624H16.6216V22.448H24.4616V18.944H15.2776ZM15.3096 24.032V25.088H24.9896V24.032H15.3096ZM34.0844 15.84V18.544H35.3964V15.84H34.0844ZM34.0684 11.008V11.648C34.0684 13.584 31.5884 15.184 28.9964 15.536L29.5084 16.592C32.4524 16.112 35.2204 14.256 35.2204 11.648V11.008H34.0684ZM34.2764 11.008V11.648C34.2764 14.256 37.0604 16.096 39.9884 16.592L40.4844 15.536C37.9084 15.184 35.4124 13.584 35.4124 11.648V11.008H34.2764ZM28.2124 17.968V19.024H41.2844V17.968H28.2124ZM34.7404 20.224C31.6364 20.224 29.7804 21.12 29.7804 22.72C29.7804 24.336 31.6364 25.216 34.7404 25.216C37.8444 25.216 39.7004 24.336 39.7004 22.72C39.7004 21.12 37.8444 20.224 34.7404 20.224ZM34.7404 21.248C37.0284 21.248 38.3564 21.776 38.3564 22.72C38.3564 23.664 37.0284 24.192 34.7404 24.192C32.4684 24.192 31.1244 23.664 31.1244 22.72C31.1244 21.776 32.4684 21.248 34.7404 21.248ZM44.5551 15.504V16.592H51.5311V15.504H44.5551ZM47.3391 16.16V19.056H48.6671V16.16H47.3391ZM44.5551 11.728V15.984H45.8831V12.816H51.4351V11.728H44.5551ZM53.7071 10.784V21.6H55.0351V10.784H53.7071ZM45.6911 23.84V24.928H55.5151V23.84H45.6911ZM45.6911 20.896V24.304H47.0031V20.896H45.6911ZM43.4511 19.776C46.1551 19.776 49.5791 19.696 52.6351 19.248L52.5551 18.272C49.5791 18.624 46.0591 18.688 43.2751 18.688L43.4511 19.776ZM72.9699 10.8V21.36H74.3139V10.8H72.9699ZM65.0179 23.84V24.928H74.7459V23.84H65.0179ZM65.0179 20.272V24.208H66.3299V20.272H65.0179ZM66.5539 11.792C64.3939 11.792 62.7779 13.264 62.7779 15.36C62.7779 17.44 64.3939 18.928 66.5539 18.928C68.7139 18.928 70.3139 17.44 70.3139 15.36C70.3139 13.264 68.7139 11.792 66.5539 11.792ZM66.5539 12.944C67.9619 12.944 69.0339 13.936 69.0339 15.36C69.0339 16.768 67.9619 17.76 66.5539 17.76C65.1459 17.76 64.0739 16.768 64.0739 15.36C64.0739 13.936 65.1459 12.944 66.5539 12.944ZM77.4246 17.664V18.736H90.4966V17.664H77.4246ZM83.9526 19.984C80.8646 19.984 78.9926 20.944 78.9926 22.608C78.9926 24.272 80.8646 25.216 83.9526 25.216C87.0406 25.216 88.9126 24.272 88.9126 22.608C88.9126 20.944 87.0406 19.984 83.9526 19.984ZM83.9526 21.04C86.2246 21.04 87.5686 21.6 87.5686 22.608C87.5686 23.6 86.2246 24.176 83.9526 24.176C81.6966 24.176 80.3366 23.6 80.3366 22.608C80.3366 21.6 81.6966 21.04 83.9526 21.04ZM83.1046 12.096V12.528C83.1046 14.16 80.7526 15.456 78.1606 15.744L78.6406 16.784C81.6326 16.432 84.2886 14.848 84.2886 12.528V12.096H83.1046ZM83.6646 12.096V12.528C83.6646 14.848 86.3046 16.432 89.2966 16.784L89.7766 15.744C87.1846 15.456 84.8326 14.16 84.8326 12.528V12.096H83.6646ZM78.6246 11.52V12.592H89.3286V11.52H78.6246ZM93.9754 12.192V13.28H103.159V12.192H93.9754ZM92.4074 22.192V23.28H105.479V22.192H92.4074ZM102.615 12.192V13.568C102.615 15.28 102.615 17.312 101.991 20.112L103.319 20.272C103.911 17.312 103.911 15.328 103.911 13.568V12.192H102.615ZM102.903 15.664L93.5754 16.032L93.7834 17.184L102.903 16.672V15.664ZM97.4954 18.448V22.592H98.8234V18.448H97.4954ZM109.054 17.712V18.8H118.99V17.712H109.054ZM107.406 22.192V23.296H120.51V22.192H107.406ZM109.054 12.112V18.192H110.382V13.216H118.846V12.112H109.054ZM137.165 10.784V18.544H138.509V10.784H137.165ZM129.181 19.264V25.056H138.509V19.264H137.197V21.024H130.493V19.264H129.181ZM130.493 22.08H137.197V23.984H130.493V22.08ZM130.749 11.472C128.557 11.472 126.973 12.832 126.973 14.8C126.973 16.784 128.557 18.144 130.749 18.144C132.941 18.144 134.509 16.784 134.509 14.8C134.509 12.832 132.941 11.472 130.749 11.472ZM130.749 12.576C132.189 12.576 133.229 13.488 133.229 14.8C133.229 16.112 132.189 17.024 130.749 17.024C129.309 17.024 128.269 16.112 128.269 14.8C128.269 13.488 129.309 12.576 130.749 12.576ZM142.228 17.952V19.04H143.268C146.164 19.04 147.604 18.992 149.396 18.672L149.252 17.6C147.524 17.904 146.116 17.952 143.268 17.952H142.228ZM142.196 11.648V12.736H147.124V14.72H142.228V18.608H143.54V15.76H148.436V11.648H142.196ZM152.196 10.8V19.68H153.524V10.8H152.196ZM149.396 12.928V14.016H152.5V12.928H149.396ZM149.396 15.92V17.008H152.5V15.92H149.396ZM143.844 20.464V21.552H152.196V25.28H153.524V20.464H143.844Z" fill="#5287C6"/>
</svg>
