<svg width="288" height="36" viewBox="0 0 288 36" fill="none" xmlns="http://www.w3.org/2000/svg">
<path d="M25.7831 9.48V27.56H27.4231V9.48H25.7831ZM26.4831 16.54V17.92H29.8231V16.54H26.4831ZM13.3631 11.16V23.18H18.3631V11.16H16.9831V15.8H14.7831V11.16H13.3631ZM14.7831 17.12H16.9831V21.82H14.7831V17.12ZM19.3231 11.16V23.18H24.2631V11.16H22.8631V15.8H20.7231V11.16H19.3231ZM20.7231 17.12H22.8631V21.82H20.7231V17.12ZM31.7516 19.5V20.84H48.1516V19.5H31.7516ZM33.9116 25.8V27.16H46.4316V25.8H33.9116ZM33.9116 22.26V26.32H35.5716V22.26H33.9116ZM33.8316 10.08V11.38H44.4116V13.34H33.8716V17H35.5116V14.56H46.0316V10.08H33.8316ZM33.8716 16.56V17.86H46.4316V16.56H33.8716ZM60.59 11.04V14.28C60.59 17.7 58.41 21.16 55.73 22.44L56.75 23.8C59.71 22.3 61.95 18.44 61.95 14.28V11.04H60.59ZM60.87 11.04V14.28C60.87 18.3 63.13 22.02 66.07 23.46L67.07 22.14C64.39 20.9 62.23 17.58 62.23 14.28V11.04H60.87ZM68.95 9.46V27.58H70.61V9.46H68.95ZM78.9984 11.34V12.8C78.9984 15.38 77.1984 17.7 74.4584 18.66L75.3384 19.96C78.3584 18.88 80.3584 16.12 80.3584 12.8V11.34H78.9984ZM79.2984 11.34V12.78C79.2984 15.9 81.2184 18.56 84.1984 19.6L85.0584 18.3C82.3984 17.4 80.6584 15.18 80.6584 12.78V11.34H79.2984ZM74.9784 10.74V12.1H84.6384V10.74H74.9784ZM86.9184 9.48V20.36H88.5784V9.48H86.9184ZM88.1184 14.24V15.62H91.2584V14.24H88.1184ZM76.8384 21.32V22.7H86.9184V27.56H88.5784V21.32H76.8384Z" fill="#A6A6A6"/>
</svg>
