<svg width="288" height="36" viewBox="0 0 288 36" fill="none" xmlns="http://www.w3.org/2000/svg">
<path d="M23.6343 10.8V21.36H24.9783V10.8H23.6343ZM15.6823 23.84V24.928H25.4103V23.84H15.6823ZM15.6823 20.272V24.208H16.9943V20.272H15.6823ZM17.2183 11.792C15.0583 11.792 13.4423 13.264 13.4423 15.36C13.4423 17.44 15.0583 18.928 17.2183 18.928C19.3783 18.928 20.9783 17.44 20.9783 15.36C20.9783 13.264 19.3783 11.792 17.2183 11.792ZM17.2183 12.944C18.6263 12.944 19.6983 13.936 19.6983 15.36C19.6983 16.768 18.6263 17.76 17.2183 17.76C15.8103 17.76 14.7383 16.768 14.7383 15.36C14.7383 13.936 15.8103 12.944 17.2183 12.944ZM28.089 17.664V18.736H41.161V17.664H28.089ZM34.617 19.984C31.529 19.984 29.657 20.944 29.657 22.608C29.657 24.272 31.529 25.216 34.617 25.216C37.705 25.216 39.577 24.272 39.577 22.608C39.577 20.944 37.705 19.984 34.617 19.984ZM34.617 21.04C36.889 21.04 38.233 21.6 38.233 22.608C38.233 23.6 36.889 24.176 34.617 24.176C32.361 24.176 31.001 23.6 31.001 22.608C31.001 21.6 32.361 21.04 34.617 21.04ZM33.769 12.096V12.528C33.769 14.16 31.417 15.456 28.825 15.744L29.305 16.784C32.297 16.432 34.953 14.848 34.953 12.528V12.096H33.769ZM34.329 12.096V12.528C34.329 14.848 36.969 16.432 39.961 16.784L40.441 15.744C37.849 15.456 35.497 14.16 35.497 12.528V12.096H34.329ZM29.289 11.52V12.592H39.993V11.52H29.289ZM44.4318 15.504V16.592H51.4078V15.504H44.4318ZM47.2158 16.16V19.056H48.5438V16.16H47.2158ZM44.4318 11.728V15.984H45.7598V12.816H51.3118V11.728H44.4318ZM53.5838 10.784V21.6H54.9118V10.784H53.5838ZM45.5678 23.84V24.928H55.3918V23.84H45.5678ZM45.5678 20.896V24.304H46.8798V20.896H45.5678ZM43.3278 19.776C46.0318 19.776 49.4558 19.696 52.5118 19.248L52.4318 18.272C49.4558 18.624 45.9358 18.688 43.1518 18.688L43.3278 19.776ZM65.6785 19.728V25.248H67.0385V19.728H65.6785ZM70.6545 19.728V25.248H72.0145V19.728H70.6545ZM62.3185 19.008V20.112H75.4385V19.008H62.3185ZM68.8465 11.36C65.8385 11.36 63.7905 12.576 63.7905 14.512C63.7905 16.432 65.8385 17.664 68.8465 17.664C71.8705 17.664 73.9025 16.432 73.9025 14.512C73.9025 12.576 71.8705 11.36 68.8465 11.36ZM68.8465 12.432C71.0545 12.432 72.5425 13.248 72.5425 14.512C72.5425 15.776 71.0545 16.592 68.8465 16.592C66.6385 16.592 65.1345 15.776 65.1345 14.512C65.1345 13.248 66.6385 12.432 68.8465 12.432ZM87.8933 10.768V25.264H89.2053V10.768H87.8933ZM84.7733 16.048V17.136H88.2773V16.048H84.7733ZM80.9813 12.848V15.008C80.9813 17.584 79.2693 20.32 77.1893 21.344L77.9733 22.4C80.2613 21.216 82.0533 18.128 82.0533 15.008V12.848H80.9813ZM81.2533 12.848V15.008C81.2533 17.984 83.0133 20.96 85.3013 22.096L86.0853 21.056C83.9893 20.064 82.3093 17.424 82.3093 15.008V12.848H81.2533ZM77.7173 12.256V13.36H85.5893V12.256H77.7173ZM107.092 10.768V25.264H108.42V10.768H107.092ZM97.396 20.672V21.776H98.596C101.076 21.776 103.252 21.68 105.876 21.248L105.732 20.16C103.172 20.576 101.012 20.672 98.596 20.672H97.396ZM97.364 12.128V13.216H102.708V16.208H97.396V21.088H98.724V17.296H104.052V12.128H97.364ZM117.339 11.776V12.88C117.339 15.344 114.619 17.552 112.075 18.032L112.667 19.136C115.563 18.48 118.491 16.032 118.491 12.88V11.776H117.339ZM117.579 11.776V12.88C117.579 16.048 120.523 18.48 123.403 19.136L123.995 18.032C121.467 17.552 118.731 15.36 118.731 12.88V11.776H117.579ZM111.547 22.208V23.296H124.651V22.208H111.547ZM128.209 18.576V19.648H138.146V18.576H128.209ZM126.529 22.288V23.392H139.634V22.288H126.529ZM128.209 12.016V18.912H129.553V13.104H137.986V12.016H128.209ZM129.122 15.248V16.304H137.682V15.248H129.122ZM151.632 17.984V20.176H152.96V17.984H151.632ZM145.776 17.2V18.224H158.832V17.2H145.776ZM151.648 10.688V12.448H152.96V10.688H151.648ZM151.584 12.576V12.8C151.584 14.352 149.312 15.36 146.464 15.536L146.848 16.56C150.048 16.288 152.752 15.072 152.752 12.8V12.576H151.584ZM151.856 12.576V12.8C151.856 15.072 154.544 16.288 157.744 16.56L158.128 15.536C155.296 15.36 153.024 14.352 153.024 12.8V12.576H151.856ZM147.104 12.048V13.056H157.504V12.048H147.104ZM147.344 19.536V20.544H155.856V21.776H147.376V24.464H148.688V22.72H157.168V19.536H147.344ZM147.376 24.08V25.088H157.6V24.08H147.376ZM161.351 17.952V19.04H162.391C165.287 19.04 166.727 18.992 168.519 18.672L168.375 17.6C166.647 17.904 165.239 17.952 162.391 17.952H161.351ZM161.319 11.648V12.736H166.247V14.72H161.351V18.608H162.663V15.76H167.559V11.648H161.319ZM171.319 10.8V19.68H172.647V10.8H171.319ZM168.519 12.928V14.016H171.623V12.928H168.519ZM168.519 15.92V17.008H171.623V15.92H168.519ZM162.967 20.464V21.552H171.319V25.28H172.647V20.464H162.967Z" fill="#5287C6"/>
</svg>
