<svg width="288" height="36" viewBox="0 0 288 36" fill="none" xmlns="http://www.w3.org/2000/svg">
<path d="M23.7662 10.8V21.36H25.1102V10.8H23.7662ZM15.8142 23.84V24.928H25.5422V23.84H15.8142ZM15.8142 20.272V24.208H17.1262V20.272H15.8142ZM17.3502 11.792C15.1902 11.792 13.5742 13.264 13.5742 15.36C13.5742 17.44 15.1902 18.928 17.3502 18.928C19.5102 18.928 21.1102 17.44 21.1102 15.36C21.1102 13.264 19.5102 11.792 17.3502 11.792ZM17.3502 12.944C18.7582 12.944 19.8302 13.936 19.8302 15.36C19.8302 16.768 18.7582 17.76 17.3502 17.76C15.9422 17.76 14.8702 16.768 14.8702 15.36C14.8702 13.936 15.9422 12.944 17.3502 12.944ZM28.221 17.664V18.736H41.293V17.664H28.221ZM34.749 19.984C31.661 19.984 29.789 20.944 29.789 22.608C29.789 24.272 31.661 25.216 34.749 25.216C37.837 25.216 39.709 24.272 39.709 22.608C39.709 20.944 37.837 19.984 34.749 19.984ZM34.749 21.04C37.021 21.04 38.365 21.6 38.365 22.608C38.365 23.6 37.021 24.176 34.749 24.176C32.493 24.176 31.133 23.6 31.133 22.608C31.133 21.6 32.493 21.04 34.749 21.04ZM33.901 12.096V12.528C33.901 14.16 31.549 15.456 28.957 15.744L29.437 16.784C32.429 16.432 35.085 14.848 35.085 12.528V12.096H33.901ZM34.461 12.096V12.528C34.461 14.848 37.101 16.432 40.093 16.784L40.573 15.744C37.981 15.456 35.629 14.16 35.629 12.528V12.096H34.461ZM29.421 11.52V12.592H40.125V11.52H29.421ZM44.5637 15.504V16.592H51.5397V15.504H44.5637ZM47.3477 16.16V19.056H48.6757V16.16H47.3477ZM44.5637 11.728V15.984H45.8917V12.816H51.4437V11.728H44.5637ZM53.7157 10.784V21.6H55.0437V10.784H53.7157ZM45.6997 23.84V24.928H55.5237V23.84H45.6997ZM45.6997 20.896V24.304H47.0117V20.896H45.6997ZM43.4597 19.776C46.1637 19.776 49.5877 19.696 52.6437 19.248L52.5637 18.272C49.5877 18.624 46.0677 18.688 43.2837 18.688L43.4597 19.776ZM72.9625 10.768V25.264H74.2905V10.768H72.9625ZM66.6585 11.888C64.5305 11.888 62.9945 13.856 62.9945 16.928C62.9945 20.016 64.5305 21.984 66.6585 21.984C68.8025 21.984 70.3385 20.016 70.3385 16.928C70.3385 13.856 68.8025 11.888 66.6585 11.888ZM66.6585 13.088C68.0825 13.088 69.0585 14.592 69.0585 16.928C69.0585 19.28 68.0825 20.816 66.6585 20.816C65.2505 20.816 64.2585 19.28 64.2585 16.928C64.2585 14.592 65.2505 13.088 66.6585 13.088ZM77.9612 12.448V21.376H83.4812V12.448H77.9612ZM82.2332 13.504V20.32H79.2092V13.504H82.2332ZM88.4572 10.784V25.248H89.7372V10.784H88.4572ZM82.8092 16.224V17.328H86.1372V16.224H82.8092ZM85.5932 11.088V24.528H86.8572V11.088H85.5932ZM96.48 11.312C94.336 11.312 92.752 12.624 92.752 14.528C92.752 16.416 94.336 17.728 96.48 17.728C98.64 17.728 100.224 16.416 100.224 14.528C100.224 12.624 98.64 11.312 96.48 11.312ZM96.48 12.4C97.888 12.4 98.928 13.28 98.928 14.528C98.928 15.776 97.888 16.64 96.48 16.64C95.088 16.64 94.032 15.776 94.032 14.528C94.032 13.28 95.088 12.4 96.48 12.4ZM102.944 10.784V18.192H104.288V10.784H102.944ZM94.928 18.896V19.968H102.976V21.424H94.96V24.592H96.256V22.416H104.288V18.896H94.928ZM94.96 24V25.056H104.768V24H94.96ZM117.927 10.8V21.36H119.271V10.8H117.927ZM109.975 23.84V24.928H119.703V23.84H109.975ZM109.975 20.272V24.208H111.287V20.272H109.975ZM111.511 11.792C109.351 11.792 107.735 13.264 107.735 15.36C107.735 17.44 109.351 18.928 111.511 18.928C113.671 18.928 115.271 17.44 115.271 15.36C115.271 13.264 113.671 11.792 111.511 11.792ZM111.511 12.944C112.919 12.944 113.991 13.936 113.991 15.36C113.991 16.768 112.919 17.76 111.511 17.76C110.103 17.76 109.031 16.768 109.031 15.36C109.031 13.936 110.103 12.944 111.511 12.944ZM126.221 12.848V15.2C126.221 17.696 124.477 20.416 122.381 21.408L123.149 22.464C125.453 21.328 127.293 18.256 127.293 15.2V12.848H126.221ZM126.477 12.848V15.2C126.477 18.208 128.333 21.024 130.669 22.112L131.421 21.056C129.293 20.144 127.549 17.648 127.549 15.2V12.848H126.477ZM122.861 12.256V13.376H130.941V12.256H122.861ZM132.893 10.784V25.248H134.221V10.784H132.893ZM145.42 17.568V19.424H146.748V17.568H145.42ZM151.516 10.8V20.496H152.844V10.8H151.516ZM152.284 15.168V16.272H154.956V15.168H152.284ZM141.724 20.08C144.252 20.064 147.676 20.048 150.764 19.504L150.652 18.56C147.66 18.992 144.14 18.992 141.548 18.992L141.724 20.08ZM143.34 21.216V22.272H151.516V25.248H152.844V21.216H143.34ZM141.916 12.096V13.088H150.22V12.096H141.916ZM146.076 13.648C144.028 13.648 142.7 14.464 142.7 15.792C142.7 17.12 144.028 17.936 146.076 17.936C148.108 17.936 149.436 17.12 149.436 15.792C149.436 14.464 148.108 13.648 146.076 13.648ZM146.076 14.56C147.356 14.56 148.188 15.024 148.188 15.792C148.188 16.528 147.356 17.008 146.076 17.008C144.78 17.008 143.948 16.528 143.948 15.792C143.948 15.024 144.78 14.56 146.076 14.56ZM145.42 10.672V12.576H146.748V10.672H145.42ZM167.139 10.8V21.36H168.483V10.8H167.139ZM159.187 23.84V24.928H168.915V23.84H159.187ZM159.187 20.272V24.208H160.499V20.272H159.187ZM160.723 11.792C158.563 11.792 156.947 13.264 156.947 15.36C156.947 17.44 158.563 18.928 160.723 18.928C162.883 18.928 164.483 17.44 164.483 15.36C164.483 13.264 162.883 11.792 160.723 11.792ZM160.723 12.944C162.131 12.944 163.203 13.936 163.203 15.36C163.203 16.768 162.131 17.76 160.723 17.76C159.315 17.76 158.243 16.768 158.243 15.36C158.243 13.936 159.315 12.944 160.723 12.944Z" fill="#5287C6"/>
</svg>
