<svg width="288" height="36" viewBox="0 0 288 36" fill="none" xmlns="http://www.w3.org/2000/svg">
<path d="M23.8351 10.784V25.248H25.1151V10.784H23.8351ZM21.3871 16.576V17.68H24.1711V16.576H21.3871ZM20.5551 11.104V24.512H21.8031V11.104H20.5551ZM13.3551 20.576V21.68H14.2991C16.4751 21.68 17.9311 21.616 19.6591 21.248L19.5311 20.144C17.8511 20.496 16.4111 20.576 14.2991 20.576H13.3551ZM13.3551 12.544V21.072H14.6671V13.632H18.7311V12.544H13.3551ZM27.8579 12.304V13.392H36.4019V12.304H27.8579ZM32.1299 14.128C30.0499 14.128 28.6579 15.152 28.6579 16.752C28.6579 18.336 30.0499 19.344 32.1299 19.344C34.1779 19.344 35.5859 18.336 35.5859 16.752C35.5859 15.152 34.1779 14.128 32.1299 14.128ZM32.1299 15.168C33.4259 15.168 34.3219 15.776 34.3219 16.752C34.3219 17.696 33.4259 18.32 32.1299 18.32C30.8019 18.32 29.9219 17.696 29.9219 16.752C29.9219 15.776 30.8019 15.168 32.1299 15.168ZM37.7139 10.784V19.824H39.0419V10.784H37.7139ZM38.6739 14.768V15.872H41.1859V14.768H38.6739ZM29.6499 20.608V21.696H37.7139V25.248H39.0419V20.608H29.6499ZM31.4579 10.704V12.912H32.7859V10.704H31.4579ZM49.7046 13.12V14.208H53.8806V13.12H49.7046ZM49.7046 16V17.072H53.9126V16H49.7046ZM53.3686 10.784V19.344H54.6966V10.784H53.3686ZM43.4646 11.872V18.304H50.0726V11.872H43.4646ZM48.7606 12.944V17.248H44.7606V12.944H48.7606ZM49.9446 19.76C46.9526 19.76 45.1126 20.768 45.1126 22.496C45.1126 24.224 46.9526 25.216 49.9446 25.216C52.9206 25.216 54.7606 24.224 54.7606 22.496C54.7606 20.768 52.9206 19.76 49.9446 19.76ZM49.9446 20.816C52.1206 20.816 53.4486 21.44 53.4486 22.496C53.4486 23.552 52.1206 24.176 49.9446 24.176C47.7686 24.176 46.4406 23.552 46.4406 22.496C46.4406 21.44 47.7686 20.816 49.9446 20.816ZM67.9434 16.496V17.584H70.6794V16.496H67.9434ZM64.9994 14.48V15.232C64.9994 17.6 63.8794 20.144 61.9274 21.28L62.7114 22.288C64.8234 21.024 66.0234 18.112 66.0234 15.232V14.48H64.9994ZM65.2394 14.48V15.232C65.2394 18.048 66.4874 20.784 68.6154 21.968L69.3674 20.976C67.4154 19.92 66.2634 17.536 66.2634 15.232V14.48H65.2394ZM62.3274 13.44V14.544H68.9354V13.44H62.3274ZM64.9994 11.296V14.288H66.2794V11.296H64.9994ZM73.0474 10.784V25.248H74.3274V10.784H73.0474ZM70.1514 11.12V24.512H71.3994V11.12H70.1514ZM78.5901 12.256V13.344H87.7741V12.256H78.5901ZM77.0381 22.128V23.248H90.1101V22.128H77.0381ZM87.1981 12.256V14.032C87.1981 16.112 87.1981 18.176 86.5741 20.96L87.8861 21.088C88.4941 18.128 88.4941 16.16 88.4941 14.032V12.256H87.1981ZM87.5341 16.256L78.2061 16.64L78.3981 17.744L87.5341 17.248V16.256Z" fill="#5287C6"/>
</svg>
