<svg width="25" height="13" viewBox="0 0 25 13" fill="none" xmlns="http://www.w3.org/2000/svg">
<path d="M5.356 1.419V1.913C5.356 3.46 3.341 4.812 1.274 5.111L1.69 5.969C4.056 5.566 6.292 4.019 6.292 1.913V1.419H5.356ZM5.629 1.419V1.913C5.629 4.019 7.852 5.566 10.231 5.969L10.634 5.111C8.58 4.812 6.552 3.46 6.552 1.913V1.419H5.629ZM5.395 7.529V12.014H6.461V7.529H5.395ZM0.65 6.957V7.841H11.271V6.957H0.65ZM1.638 0.989999V1.861H10.244V0.989999H1.638ZM16.899 6.307V9.83H17.965V6.307H16.899ZM21.241 6.307V9.83H22.32V6.307H21.241ZM14.299 9.622V10.519H24.946V9.622H14.299ZM19.603 1.003C17.107 1.003 15.326 2.186 15.326 4.032C15.326 5.865 17.107 7.048 19.603 7.048C22.086 7.048 23.867 5.865 23.867 4.032C23.867 2.186 22.086 1.003 19.603 1.003ZM19.603 1.861C21.488 1.861 22.827 2.719 22.827 4.032C22.827 5.332 21.488 6.19 19.603 6.19C17.718 6.19 16.366 5.332 16.366 4.032C16.366 2.719 17.718 1.861 19.603 1.861Z" fill="#595959"/>
</svg>
