<svg width="84" height="10" viewBox="0 0 84 10" fill="none" xmlns="http://www.w3.org/2000/svg">
<path d="M6.89 8.97C6.43067 8.97 6.02767 8.83567 5.681 8.567C5.343 8.28967 4.966 7.79567 4.55 7.085L3.25 4.875H2.34V8.84H1.17V1.82C1.17 1.378 1.10933 1.053 0.988 0.845C0.866667 0.628333 0.624 0.52 0.26 0.52H0V0.26H3.38C4.20333 0.26 4.94867 0.424666 5.616 0.754C6.292 1.07467 6.63 1.69 6.63 2.6C6.63 3.75267 5.93667 4.48933 4.55 4.81L5.915 7.085C6.23567 7.62233 6.52167 7.99933 6.773 8.216C7.033 8.424 7.332 8.54533 7.67 8.58V8.84C7.592 8.87467 7.47933 8.905 7.332 8.931C7.19333 8.957 7.046 8.97 6.89 8.97ZM3.315 4.42C3.58367 4.42 3.874 4.355 4.186 4.225C4.50667 4.095 4.77533 3.89133 4.992 3.614C5.21733 3.33667 5.33 2.99867 5.33 2.6C5.33 2.17533 5.21733 1.82433 4.992 1.547C4.77533 1.261 4.50667 1.053 4.186 0.923C3.874 0.784333 3.58367 0.715 3.315 0.715C3.01167 0.715 2.68667 0.758333 2.34 0.845V4.29C2.68667 4.37667 3.01167 4.42 3.315 4.42Z" fill="#595959"/>
<path d="M10.5914 1.82C10.5914 1.378 10.5308 1.053 10.4094 0.845C10.2881 0.628333 10.0454 0.52 9.68145 0.52H9.42145V0.26H14.9594C15.6961 0.26 16.0644 0.606667 16.0644 1.3V2.275H15.8044C15.8044 1.27833 15.2628 0.78 14.1794 0.78H11.7614V4.16H15.2714V4.68H11.7614V8.32H14.0364C14.6344 8.32 15.1024 8.21167 15.4404 7.995C15.7784 7.77833 16.0471 7.41 16.2464 6.89L16.5064 6.955L16.0514 8.19C15.8954 8.62333 15.5704 8.84 15.0764 8.84H10.5914V1.82Z" fill="#595959"/>
<path d="M19.9494 1.82C19.9494 1.378 19.8887 1.053 19.7674 0.845C19.6461 0.628333 19.4034 0.52 19.0394 0.52H18.7794V0.26H23.9664C24.7031 0.26 25.0714 0.606667 25.0714 1.3V2.275H24.8114C24.8114 1.27833 24.2697 0.78 23.1864 0.78H21.1194V4.225H24.0574V4.745H21.1194V8.84H19.9494V1.82Z" fill="#595959"/>
<path d="M28.4949 1.82C28.4949 1.378 28.4342 1.053 28.3129 0.845C28.1915 0.628333 27.9489 0.52 27.5849 0.52H27.3249V0.26H32.8629C33.5996 0.26 33.9679 0.606667 33.9679 1.3V2.275H33.7079C33.7079 1.27833 33.1662 0.78 32.0829 0.78H29.6649V4.16H33.1749V4.68H29.6649V8.32H31.9399C32.5379 8.32 33.0059 8.21167 33.3439 7.995C33.6819 7.77833 33.9506 7.41 34.1499 6.89L34.4099 6.955L33.9549 8.19C33.7989 8.62333 33.4739 8.84 32.9799 8.84H28.4949V1.82Z" fill="#595959"/>
<path d="M43.5729 8.97C43.1135 8.97 42.7105 8.83567 42.3639 8.567C42.0259 8.28967 41.6489 7.79567 41.2329 7.085L39.9329 4.875H39.0229V8.84H37.8529V1.82C37.8529 1.378 37.7922 1.053 37.6709 0.845C37.5495 0.628333 37.3069 0.52 36.9429 0.52H36.6829V0.26H40.0629C40.8862 0.26 41.6315 0.424666 42.2989 0.754C42.9749 1.07467 43.3129 1.69 43.3129 2.6C43.3129 3.75267 42.6195 4.48933 41.2329 4.81L42.5979 7.085C42.9185 7.62233 43.2045 7.99933 43.4559 8.216C43.7159 8.424 44.0149 8.54533 44.3529 8.58V8.84C44.2749 8.87467 44.1622 8.905 44.0149 8.931C43.8762 8.957 43.7289 8.97 43.5729 8.97ZM39.9979 4.42C40.2665 4.42 40.5569 4.355 40.8689 4.225C41.1895 4.095 41.4582 3.89133 41.6749 3.614C41.9002 3.33667 42.0129 2.99867 42.0129 2.6C42.0129 2.17533 41.9002 1.82433 41.6749 1.547C41.4582 1.261 41.1895 1.053 40.8689 0.923C40.5569 0.784333 40.2665 0.715 39.9979 0.715C39.6945 0.715 39.3695 0.758333 39.0229 0.845V4.29C39.3695 4.37667 39.6945 4.42 39.9979 4.42Z" fill="#595959"/>
<path d="M47.2743 1.82C47.2743 1.378 47.2136 1.053 47.0923 0.845C46.971 0.628333 46.7283 0.52 46.3643 0.52H46.1043V0.26H51.6423C52.379 0.26 52.7473 0.606667 52.7473 1.3V2.275H52.4873C52.4873 1.27833 51.9456 0.78 50.8623 0.78H48.4443V4.16H51.9543V4.68H48.4443V8.32H50.7193C51.3173 8.32 51.7853 8.21167 52.1233 7.995C52.4613 7.77833 52.73 7.41 52.9293 6.89L53.1893 6.955L52.7343 8.19C52.5783 8.62333 52.2533 8.84 51.7593 8.84H47.2743V1.82Z" fill="#595959"/>
<path d="M57.2043 8.84H56.6843V1.82C56.6843 1.404 56.5933 1.08333 56.4113 0.858C56.2379 0.632666 55.9389 0.52 55.5143 0.52H55.3843V0.26H56.2293C56.6279 0.26 56.9659 0.325 57.2433 0.455C57.5206 0.585 57.7676 0.78 57.9843 1.04L62.5343 6.695V0.26H63.0543V8.97H62.7943L57.2043 2.015V8.84Z" fill="#595959"/>
<path d="M70.4457 9.1C69.6397 9.1 68.929 8.905 68.3137 8.515C67.707 8.125 67.239 7.59633 66.9097 6.929C66.5804 6.253 66.4157 5.50333 66.4157 4.68C66.4157 3.83067 66.5934 3.04633 66.9487 2.327C67.3127 1.60767 67.8023 1.04 68.4177 0.624C69.0417 0.208 69.7177 0 70.4457 0C71.139 0 71.7457 0.0996667 72.2657 0.299C72.7943 0.489666 73.1843 0.736666 73.4357 1.04C73.583 1.222 73.674 1.46467 73.7087 1.768C73.7433 2.06267 73.7607 2.47 73.7607 2.99H73.5007C73.336 2.14933 73.0327 1.52967 72.5907 1.131C72.1487 0.723666 71.5637 0.52 70.8357 0.52C69.8997 0.52 69.1457 0.849333 68.5737 1.508C68.0017 2.16667 67.7157 3.224 67.7157 4.68C67.7157 5.36467 67.824 6.00167 68.0407 6.591C68.266 7.18033 68.6127 7.66133 69.0807 8.034C69.5487 8.398 70.1337 8.58 70.8357 8.58C71.4683 8.58 72.0187 8.42833 72.4867 8.125C72.9633 7.82167 73.388 7.36667 73.7607 6.76L74.0207 6.955C73.622 7.735 73.128 8.28967 72.5387 8.619C71.958 8.93967 71.2603 9.1 70.4457 9.1Z" fill="#595959"/>
<path d="M77.5572 1.82C77.5572 1.378 77.4965 1.053 77.3752 0.845C77.2539 0.628333 77.0112 0.52 76.6472 0.52H76.3872V0.26H81.9252C82.6619 0.26 83.0302 0.606667 83.0302 1.3V2.275H82.7702C82.7702 1.27833 82.2285 0.78 81.1452 0.78H78.7272V4.16H82.2372V4.68H78.7272V8.32H81.0022C81.6002 8.32 82.0682 8.21167 82.4062 7.995C82.7442 7.77833 83.0129 7.41 83.2122 6.89L83.4722 6.955L83.0172 8.19C82.8612 8.62333 82.5362 8.84 82.0422 8.84H77.5572V1.82Z" fill="#595959"/>
</svg>
