<svg width="26" height="26" viewBox="0 0 26 26" fill="none" xmlns="http://www.w3.org/2000/svg">
<path d="M17.068 15.443H16.2122L15.9089 15.1505C16.9705 13.9155 17.6097 12.3122 17.6097 10.568C17.6097 6.67887 14.4572 3.52637 10.568 3.52637C6.67887 3.52637 3.52637 6.67887 3.52637 10.568C3.52637 14.4572 6.67887 17.6097 10.568 17.6097C12.3122 17.6097 13.9155 16.9705 15.1505 15.9089L15.443 16.2122V17.068L20.8597 22.4739L22.4739 20.8597L17.068 15.443ZM10.568 15.443C7.87053 15.443 5.69303 13.2655 5.69303 10.568C5.69303 7.87053 7.87053 5.69303 10.568 5.69303C13.2655 5.69303 15.443 7.87053 15.443 10.568C15.443 13.2655 13.2655 15.443 10.568 15.443Z" fill="white"/>
</svg>
