<svg width="210" height="37" viewBox="0 0 210 37" fill="none" xmlns="http://www.w3.org/2000/svg">
<g filter="url(#filter0_d_139_194)">
<path d="M13.0989 28C10.0456 28 7.78558 27.2733 6.31891 25.82C4.86558 24.3533 4.13891 22.0933 4.13891 19.04V2.56C4.13891 2 4.27891 1.58 4.55891 1.3C4.83891 1.02 5.25891 0.879999 5.81891 0.879999C6.37891 0.879999 6.79891 1.02 7.07891 1.3C7.35891 1.58 7.49891 2 7.49891 2.56V19.04C7.49891 20.4667 7.66558 21.5867 7.99891 22.4C8.34558 23.2133 8.92558 23.7933 9.73891 24.14C10.5522 24.4733 11.6722 24.64 13.0989 24.64H17.8989C19.3256 24.64 20.4456 24.4733 21.2589 24.14C22.0722 23.7933 22.6456 23.2133 22.9789 22.4C23.3256 21.5867 23.4989 20.4667 23.4989 19.04V2.56C23.4989 2 23.6389 1.58 23.9189 1.3C24.1989 1.02 24.6189 0.879999 25.1789 0.879999C25.7389 0.879999 26.1589 1.02 26.4389 1.3C26.7189 1.58 26.8589 2 26.8589 2.56V19.04C26.8589 22.0933 26.1322 24.3533 24.6789 25.82C23.2256 27.2733 20.9656 28 17.8989 28H13.0989ZM37.8439 28C36.7239 28 36.1639 27.44 36.1639 26.32V2.56C36.1639 1.44 36.7239 0.879999 37.8439 0.879999C38.4172 0.879999 38.9772 1.21333 39.5239 1.88L55.6039 22.6H54.7639V2.56C54.7639 1.44 55.3239 0.879999 56.4439 0.879999C57.5639 0.879999 58.1239 1.44 58.1239 2.56V26.32C58.1239 27.44 57.5639 28 56.4439 28C55.8439 28 55.2839 27.6667 54.7639 27L38.6839 6.28H39.5239V26.32C39.5239 27.44 38.9639 28 37.8439 28ZM69.3173 28C68.744 28 68.3173 27.8667 68.0373 27.6C67.7707 27.32 67.6373 26.8933 67.6373 26.32V2.6C67.6373 2.01333 67.7707 1.58667 68.0373 1.32C68.3173 1.05333 68.744 0.919998 69.3173 0.919998C69.904 0.919998 70.3307 1.05333 70.5973 1.32C70.864 1.58667 70.9973 2.01333 70.9973 2.6V26.32C70.9973 26.8933 70.864 27.32 70.5973 27.6C70.3307 27.8667 69.904 28 69.3173 28ZM89.037 28C88.3437 28 87.797 27.56 87.397 26.68L77.517 3.28C77.317 2.81333 77.2637 2.4 77.357 2.04C77.4504 1.66666 77.757 1.36 78.277 1.12C79.3704 0.573331 80.1437 0.853332 80.597 1.96L89.937 24.08H88.777L97.877 1.96C98.317 0.866666 99.0904 0.586665 100.197 1.12C100.664 1.36 100.95 1.66666 101.057 2.04C101.177 2.4 101.144 2.81333 100.957 3.28L90.997 26.68C90.5837 27.56 89.9837 28 89.197 28H89.037ZM114.639 28C111.586 28 109.326 27.2733 107.859 25.82C106.406 24.3533 105.679 22.0933 105.679 19.04V9.84C105.679 6.76 106.406 4.49333 107.859 3.04C109.312 1.57333 111.559 0.853332 114.599 0.879999H119.439C121.946 0.879999 123.859 1.4 125.179 2.44C126.499 3.46666 127.266 5.09333 127.479 7.32C127.559 7.88 127.452 8.30667 127.159 8.6C126.866 8.89333 126.439 9.04 125.879 9.04C124.866 9.04 124.279 8.48 124.119 7.36C123.986 6.13333 123.559 5.30667 122.839 4.88C122.132 4.45333 120.999 4.24 119.439 4.24H114.599C113.186 4.22667 112.072 4.38667 111.259 4.72C110.459 5.05333 109.886 5.63333 109.539 6.46C109.206 7.27333 109.039 8.4 109.039 9.84V19.04C109.039 20.4667 109.206 21.5867 109.539 22.4C109.886 23.2133 110.466 23.7933 111.279 24.14C112.092 24.4733 113.212 24.64 114.639 24.64H119.439C120.999 24.64 122.132 24.4267 122.839 24C123.559 23.56 123.986 22.7333 124.119 21.52C124.279 20.4 124.866 19.84 125.879 19.84C126.439 19.84 126.866 19.9867 127.159 20.28C127.452 20.5733 127.559 21 127.479 21.56C127.266 23.8 126.499 25.4333 125.179 26.46C123.859 27.4867 121.946 28 119.439 28H114.639ZM137.37 28C136.25 28 135.69 27.44 135.69 26.32V2.56C135.69 1.44 136.25 0.879999 137.37 0.879999H151.73C152.85 0.879999 153.41 1.44 153.41 2.56C153.41 3.68 152.85 4.24 151.73 4.24H139.05V12.64H147.01C148.13 12.64 148.69 13.2 148.69 14.32C148.69 15.44 148.13 16 147.01 16H139.05V24.64H151.73C152.85 24.64 153.41 25.2 153.41 26.32C153.41 27.44 152.85 28 151.73 28H137.37ZM178.432 28.08C177.992 28.36 177.572 28.4467 177.172 28.34C176.772 28.2333 176.432 27.96 176.152 27.52L169.952 17.2H164.352V26.32C164.352 27.44 163.792 28 162.672 28C161.552 28 160.992 27.44 160.992 26.32V2.56C160.992 1.44 161.552 0.879999 162.672 0.879999H172.032C174.472 0.879999 176.339 1.53333 177.632 2.84C178.939 4.13333 179.592 6 179.592 8.44V9.64C179.592 11.76 179.099 13.4533 178.112 14.72C177.125 15.9733 175.699 16.7533 173.832 17.06L179.072 25.8C179.579 26.7333 179.365 27.4933 178.432 28.08ZM164.352 13.84H172.032C173.552 13.84 174.632 13.52 175.272 12.88C175.912 12.24 176.232 11.16 176.232 9.64V8.44C176.232 6.93333 175.912 5.86 175.272 5.22C174.632 4.56667 173.552 4.24 172.032 4.24H164.352V13.84ZM194.531 28C193.971 28 193.551 27.86 193.271 27.58C192.991 27.3 192.851 26.88 192.851 26.32V4.28H185.091C184.531 4.28 184.111 4.14 183.831 3.86C183.551 3.58 183.411 3.16 183.411 2.6C183.411 2.04 183.551 1.62 183.831 1.34C184.111 1.06 184.531 0.919998 185.091 0.919998H203.971C204.531 0.919998 204.951 1.06 205.231 1.34C205.511 1.62 205.651 2.04 205.651 2.6C205.651 3.16 205.511 3.58 205.231 3.86C204.951 4.14 204.531 4.28 203.971 4.28H196.211V26.32C196.211 26.8533 196.064 27.2667 195.771 27.56C195.491 27.8533 195.077 28 194.531 28Z" fill="#5287C6"/>
</g>
<defs>
<filter id="filter0_d_139_194" x="0.138672" y="0.299805" width="209.512" height="36.2002" filterUnits="userSpaceOnUse" color-interpolation-filters="sRGB">
<feFlood flood-opacity="0" result="BackgroundImageFix"/>
<feColorMatrix in="SourceAlpha" type="matrix" values="0 0 0 0 0 0 0 0 0 0 0 0 0 0 0 0 0 0 127 0" result="hardAlpha"/>
<feOffset dy="4"/>
<feGaussianBlur stdDeviation="2"/>
<feComposite in2="hardAlpha" operator="out"/>
<feColorMatrix type="matrix" values="0 0 0 0 0 0 0 0 0 0 0 0 0 0 0 0 0 0 0.25 0"/>
<feBlend mode="normal" in2="BackgroundImageFix" result="effect1_dropShadow_139_194"/>
<feBlend mode="normal" in="SourceGraphic" in2="effect1_dropShadow_139_194" result="shape"/>
</filter>
</defs>
</svg>
