<svg width="202" height="29" viewBox="0 0 202 29" fill="none" xmlns="http://www.w3.org/2000/svg">
<path d="M9.09891 28C6.04558 28 3.78558 27.2733 2.31891 25.82C0.865576 24.3533 0.13891 22.0933 0.13891 19.04V2.56C0.13891 2 0.27891 1.58 0.55891 1.3C0.83891 1.02 1.25891 0.879999 1.81891 0.879999C2.37891 0.879999 2.79891 1.02 3.07891 1.3C3.35891 1.58 3.49891 2 3.49891 2.56V19.04C3.49891 20.4667 3.66558 21.5867 3.99891 22.4C4.34558 23.2133 4.92558 23.7933 5.73891 24.14C6.55224 24.4733 7.67224 24.64 9.09891 24.64H13.8989C15.3256 24.64 16.4456 24.4733 17.2589 24.14C18.0722 23.7933 18.6456 23.2133 18.9789 22.4C19.3256 21.5867 19.4989 20.4667 19.4989 19.04V2.56C19.4989 2 19.6389 1.58 19.9189 1.3C20.1989 1.02 20.6189 0.879999 21.1789 0.879999C21.7389 0.879999 22.1589 1.02 22.4389 1.3C22.7189 1.58 22.8589 2 22.8589 2.56V19.04C22.8589 22.0933 22.1322 24.3533 20.6789 25.82C19.2256 27.2733 16.9656 28 13.8989 28H9.09891ZM33.8439 28C32.7239 28 32.1639 27.44 32.1639 26.32V2.56C32.1639 1.44 32.7239 0.879999 33.8439 0.879999C34.4172 0.879999 34.9772 1.21333 35.5239 1.88L51.6039 22.6H50.7639V2.56C50.7639 1.44 51.3239 0.879999 52.4439 0.879999C53.5639 0.879999 54.1239 1.44 54.1239 2.56V26.32C54.1239 27.44 53.5639 28 52.4439 28C51.8439 28 51.2839 27.6667 50.7639 27L34.6839 6.28H35.5239V26.32C35.5239 27.44 34.9639 28 33.8439 28ZM65.3173 28C64.744 28 64.3173 27.8667 64.0373 27.6C63.7707 27.32 63.6373 26.8933 63.6373 26.32V2.6C63.6373 2.01333 63.7707 1.58667 64.0373 1.32C64.3173 1.05333 64.744 0.919998 65.3173 0.919998C65.904 0.919998 66.3307 1.05333 66.5973 1.32C66.864 1.58667 66.9973 2.01333 66.9973 2.6V26.32C66.9973 26.8933 66.864 27.32 66.5973 27.6C66.3307 27.8667 65.904 28 65.3173 28ZM85.037 28C84.3437 28 83.797 27.56 83.397 26.68L73.517 3.28C73.317 2.81333 73.2637 2.4 73.357 2.04C73.4504 1.66666 73.757 1.36 74.277 1.12C75.3704 0.573331 76.1437 0.853332 76.597 1.96L85.937 24.08H84.777L93.877 1.96C94.317 0.866666 95.0904 0.586665 96.197 1.12C96.6637 1.36 96.9504 1.66666 97.057 2.04C97.177 2.4 97.1437 2.81333 96.957 3.28L86.997 26.68C86.5837 27.56 85.9837 28 85.197 28H85.037ZM110.639 28C107.586 28 105.326 27.2733 103.859 25.82C102.406 24.3533 101.679 22.0933 101.679 19.04V9.84C101.679 6.76 102.406 4.49333 103.859 3.04C105.312 1.57333 107.559 0.853332 110.599 0.879999H115.439C117.946 0.879999 119.859 1.4 121.179 2.44C122.499 3.46666 123.266 5.09333 123.479 7.32C123.559 7.88 123.452 8.30667 123.159 8.6C122.866 8.89333 122.439 9.04 121.879 9.04C120.866 9.04 120.279 8.48 120.119 7.36C119.986 6.13333 119.559 5.30667 118.839 4.88C118.132 4.45333 116.999 4.24 115.439 4.24H110.599C109.186 4.22667 108.072 4.38667 107.259 4.72C106.459 5.05333 105.886 5.63333 105.539 6.46C105.206 7.27333 105.039 8.4 105.039 9.84V19.04C105.039 20.4667 105.206 21.5867 105.539 22.4C105.886 23.2133 106.466 23.7933 107.279 24.14C108.092 24.4733 109.212 24.64 110.639 24.64H115.439C116.999 24.64 118.132 24.4267 118.839 24C119.559 23.56 119.986 22.7333 120.119 21.52C120.279 20.4 120.866 19.84 121.879 19.84C122.439 19.84 122.866 19.9867 123.159 20.28C123.452 20.5733 123.559 21 123.479 21.56C123.266 23.8 122.499 25.4333 121.179 26.46C119.859 27.4867 117.946 28 115.439 28H110.639ZM133.37 28C132.25 28 131.69 27.44 131.69 26.32V2.56C131.69 1.44 132.25 0.879999 133.37 0.879999H147.73C148.85 0.879999 149.41 1.44 149.41 2.56C149.41 3.68 148.85 4.24 147.73 4.24H135.05V12.64H143.01C144.13 12.64 144.69 13.2 144.69 14.32C144.69 15.44 144.13 16 143.01 16H135.05V24.64H147.73C148.85 24.64 149.41 25.2 149.41 26.32C149.41 27.44 148.85 28 147.73 28H133.37ZM174.432 28.08C173.992 28.36 173.572 28.4467 173.172 28.34C172.772 28.2333 172.432 27.96 172.152 27.52L165.952 17.2H160.352V26.32C160.352 27.44 159.792 28 158.672 28C157.552 28 156.992 27.44 156.992 26.32V2.56C156.992 1.44 157.552 0.879999 158.672 0.879999H168.032C170.472 0.879999 172.339 1.53333 173.632 2.84C174.939 4.13333 175.592 6 175.592 8.44V9.64C175.592 11.76 175.099 13.4533 174.112 14.72C173.125 15.9733 171.699 16.7533 169.832 17.06L175.072 25.8C175.579 26.7333 175.365 27.4933 174.432 28.08ZM160.352 13.84H168.032C169.552 13.84 170.632 13.52 171.272 12.88C171.912 12.24 172.232 11.16 172.232 9.64V8.44C172.232 6.93333 171.912 5.86 171.272 5.22C170.632 4.56667 169.552 4.24 168.032 4.24H160.352V13.84ZM190.531 28C189.971 28 189.551 27.86 189.271 27.58C188.991 27.3 188.851 26.88 188.851 26.32V4.28H181.091C180.531 4.28 180.111 4.14 179.831 3.86C179.551 3.58 179.411 3.16 179.411 2.6C179.411 2.04 179.551 1.62 179.831 1.34C180.111 1.06 180.531 0.919998 181.091 0.919998H199.971C200.531 0.919998 200.951 1.06 201.231 1.34C201.511 1.62 201.651 2.04 201.651 2.6C201.651 3.16 201.511 3.58 201.231 3.86C200.951 4.14 200.531 4.28 199.971 4.28H192.211V26.32C192.211 26.8533 192.064 27.2667 191.771 27.56C191.491 27.8533 191.077 28 190.531 28Z" fill="#5287C6"/>
</svg>
